<?xml version="1.0" encoding="UTF-8"?>
<svg id="Layer_1" xmlns="http://www.w3.org/2000/svg" xmlns:xlink="http://www.w3.org/1999/xlink" version="1.1" viewBox="0 0 620 227.5">
  <!-- Generator: Adobe Illustrator 29.5.1, SVG Export Plug-In . SVG Version: 2.1.0 Build 141)  -->
  <defs>
    <style>
      .st0 {
        fill: #0b4744;
      }

      .st1 {
        fill: url(#linear-gradient2);
      }

      .st2 {
        fill: url(#linear-gradient1);
      }

      .st3 {
        fill: url(#linear-gradient3);
      }

      .st4 {
        fill: url(#linear-gradient6);
      }

      .st5 {
        fill: url(#linear-gradient8);
      }

      .st6 {
        fill: url(#linear-gradient7);
      }

      .st7 {
        fill: url(#linear-gradient5);
      }

      .st8 {
        fill: url(#linear-gradient4);
      }

      .st9 {
        fill: url(#linear-gradient);
      }

      .st10 {
        fill: #002604;
      }

      .st11 {
        fill: #0b4d05;
      }
    </style>
    <linearGradient id="linear-gradient" x1="72.1" y1="97.9" x2="94.5" y2="97.9" gradientUnits="userSpaceOnUse">
      <stop offset="0" stop-color="#dcb851"/>
      <stop offset="1" stop-color="#9b6f25"/>
    </linearGradient>
    <linearGradient id="linear-gradient1" x1="6.3" y1="161.4" x2="100.2" y2="161.4" gradientUnits="userSpaceOnUse">
      <stop offset="0" stop-color="#0b4d05"/>
      <stop offset=".6" stop-color="#033104"/>
      <stop offset="1" stop-color="#002604"/>
    </linearGradient>
    <linearGradient id="linear-gradient2" x1="55.1" y1="205.9" y2="205.9" xlink:href="#linear-gradient1"/>
    <linearGradient id="linear-gradient3" x1="133.2" y1="192.5" x2="214.2" y2="192.5" xlink:href="#linear-gradient"/>
    <linearGradient id="linear-gradient4" x1="213.6" y1="160.2" x2="256.5" y2="160.2" xlink:href="#linear-gradient1"/>
    <linearGradient id="linear-gradient5" x1="217" y1="199.3" x2="244.2" y2="199.3" xlink:href="#linear-gradient1"/>
    <linearGradient id="linear-gradient6" x1="20.2" y1="109" x2="145.4" y2="109" xlink:href="#linear-gradient"/>
    <linearGradient id="linear-gradient7" x1="245.7" y1="99.9" x2="421.9" y2="99.9" xlink:href="#linear-gradient"/>
    <linearGradient id="linear-gradient8" x1="417.4" y1="90.2" x2="557.9" y2="90.2" xlink:href="#linear-gradient"/>
  </defs>
  <line x1="38.7" y1="92.9" x2="38.2" y2="92.9"/>
  <line class="st0" x1="127.4" y1="92.9" x2="127.1" y2="92.9"/>
  <path class="st10" d="M241.9,21.2c0,.3,0,.7-.1,1l-19.3,72.1-2.7,10.1-15.3,57.1,2.4.7c1.5.4,2.4,1.9,2,3.4l-17.6-4.7c.3-1.3,1.5-2.1,2.7-2.1s.5,0,.7,0l2,.5,10.3-38.3,5.2-19.4,1.2-4.6,1.5-5.5,2.4-9,2.7-10.1,2-7.3,2.7-10.1,9.4-35.1c.6-2.1,2.8-3.4,4.9-2.8,1.8.5,3,2.1,3,3.8Z"/>
  <polygon class="st10" points="213.5 31.5 213.5 66.4 212.3 70.5 209.7 80.6 205.5 96.2 205.5 36.7 157.3 15.9 157.3 95.9 117.7 64.8 117.7 29.5 146 11.1 154.1 5.9 157.3 7.3 206.3 28.4 213.5 31.5"/>
  <polygon class="st10" points="177.9 38.3 177.9 49.4 164.9 44.7 164.9 33.6 177.9 38.3"/>
  <polygon class="st10" points="198.2 45.6 198.2 56.7 185.2 52 185.2 40.9 198.2 45.6"/>
  <polygon class="st10" points="177.9 57.4 177.9 68.4 164.9 63.7 164.9 52.7 177.9 57.4"/>
  <polygon class="st10" points="198.2 64.7 198.2 75.7 185.2 71 185.2 60 198.2 64.7"/>
  <polygon class="st10" points="177.9 78.3 177.9 89.3 164.9 84.6 164.9 73.5 177.9 78.3"/>
  <polygon class="st10" points="198.2 85.6 198.2 96.6 185.2 91.9 185.2 80.9 198.2 85.6"/>
  <path class="st9" d="M82.2,87.4v9.3h-10.1v-9.3h10.1ZM84.4,87.4v9.3h10.1v-9.3h-10.1ZM72.1,99.1v9.3h10.1v-9.3h-10.1ZM84.4,99.1v9.3h10.1v-9.3h-10.1Z"/>
  <path class="st2" d="M28.9,152.8c1.3.6,43.8,20.4,62.6,42.6,0,0-86.8,10.5-85.2-71.1,0,0,6.6,9.6,32.4,17.5,1.3.4,2.5.8,3.9,1.2,4.3,1.2,9.1,2.4,14.3,3.4,1.2.2,2.4.5,3.5.8,15.3,4,24.8,13.3,30.6,22.8,8.4,13.9,9.2,28.3,9.2,28.3,0,0-24.4-32.6-71.3-45.6Z"/>
  <path class="st1" d="M100.2,204.8c-21.4,21-45.1-1.4-45.1-1.4,23.5-12.5,45.1,1.4,45.1,1.4Z"/>
  <path class="st11" d="M191.6,136.4v6c0,2.2-1.7,3.9-3.9,3.9h-5l-2.1,25.7c-1.1,2.2-2.4,4.6-4.1,7.1-6.3,9.7-17.6,21.1-35.8,21.9l-1-45.2c.2-.4.3-.7.4-.8,0,0-.2.3-.4.6v-.6s0-8.7,0-8.7h-43.2c-2.2,0-3.9-1.7-3.9-3.9v-6h99.1Z"/>
  <polygon class="st0" points="127.4 92.9 127.1 92.9 127.1 92.6 127.4 92.9"/>
  <polygon class="st10" points="177.9 38.3 177.9 49.4 164.9 44.7 164.9 33.6 177.9 38.3"/>
  <polygon class="st10" points="177.9 57.4 177.9 68.4 164.9 63.7 164.9 52.7 177.9 57.4"/>
  <polygon class="st10" points="177.9 78.3 177.9 89.3 164.9 84.6 164.9 73.5 177.9 78.3"/>
  <polygon class="st10" points="198.2 45.6 198.2 56.7 185.2 52 185.2 40.9 198.2 45.6"/>
  <polygon class="st10" points="198.2 64.7 198.2 75.7 185.2 71 185.2 60 198.2 64.7"/>
  <polygon class="st10" points="185.2 80.9 198.2 85.6 198.2 96.6 185.2 91.9 185.2 80.9"/>
  <path class="st11" d="M143.3,121.1c-7.7,0-10.1-4.6-16.2-7.8-2.1-1.1-4.6-2-8-2.5-1.1-.2-2.3-.3-3.6-.4-16.6-.9-12.8,22.9-12.8,22.9h57.3c.4-12-5.5-12.1-16.7-12.2ZM117.7,112.2c.5,0,1.1.2,1.5.5.6.4,1,1.2,1,2s-.4,1.6-1,2c-.4.3-.9.5-1.5.5-1.4,0-2.5-1.1-2.5-2.5s1.1-2.5,2.5-2.5ZM119.1,128.6c-1,1-2.4,1.6-4,1.6-3.2,0-5.8-2.6-5.8-5.8s2.6-5.9,5.8-5.9,2.9.6,4,1.6c1.2,1.1,1.9,2.6,1.9,4.3s-.7,3.2-1.9,4.3ZM151.2,132c-2.4,0-4.4-2-4.4-4.4s2-4.4,4.4-4.4,4.4,2,4.4,4.4-2,4.4-4.4,4.4Z"/>
  <circle class="st11" cx="167" cy="117.1" r="7.2"/>
  <circle class="st11" cx="182.9" cy="113.9" r="4.6"/>
  <circle class="st11" cx="176.7" cy="103.8" r="2.4"/>
  <circle class="st11" cx="181.2" cy="128.3" r="5"/>
  <path class="st3" d="M213.1,200.9c-3.4,13.2-13.9,18.6-13.9,18.6,0-7.9-3.1-10.8-3.3-10.9,1.7,3.4.9,12.2.9,12.2-5.5,1.6-15,.7-15,.7,3.1-11.2,3.4-20.7,3.3-26-.8,9.4-7.2,25.3-7.2,25.3-6.4,0-14.8-3.4-14.8-3.4,1.8-.8,3.5-2.3,5-4.2,3.8-4.7,6.2-11.3,6.4-11.7-3,6.2-9.5,9.9-13.6,11.8-2.1,1-3.6,1.4-3.6,1.4-1.8-.4-3.5-.8-5.2-1.3-11.3-3.3-18.9-8.5-18.9-8.5,24.1,2.4,38.6-11.2,46.6-23.5,6.2-9.4,8.5-18,8.5-18l19.7,5.4c1,2.2,1.9,4.3,2.7,6.3.8,2.3,1.5,4.4,2,6.5.5,1.9.8,3.7,1,5.4,0,.1,0,.3,0,.4,0,.3,0,.5,0,.8.5,4.9.1,9.1-.8,12.8Z"/>
  <path class="st8" d="M232.8,187.1c-1-.9-2.2-1.7-3.5-2.2-1.9-.8-4.2-1.3-6.6-1.3s-2.5.1-3.9.3c7.3-4.5,17.3-12,24-22.8-.5.5-13.2,12.3-25.4,18.3-.5-2.1-1.2-4.2-2-6.3-.6-1.5-1.2-3-1.8-4.5,2.9-4.9,7.9-10.1,16.4-13.8,21-9,23.1-21.6,23.1-21.6,0,0,15.8,35.3-20.3,53.8Z"/>
  <path class="st7" d="M244.2,208.2s-14.7,8-27.2-3.1c.3-.9.6-1.9.9-3,1.1-4.4,1.5-9.1,1-14.1,2.5-.5,5.8-.7,8.8.6,1.7.7,3.3,1.9,4.4,3.9,4.8,8.2,2.3,16.6,12.1,15.7Z"/>
  <path class="st4" d="M145.4,92.9h-18l-.3-.3v17.4c-2.3-1-4.8-1.8-7.5-2.2-.2,0-.3,0-.5,0v-21.4l-1.5-1.1-34.8-27.3-36.2,28.4h0v49.7c2.7.7,5.5,1.3,8.5,1.9,1.2.2,2.4.5,3.7.9,14,3.7,24.8,11.8,32.4,24.1,2.4,3.9,4.1,7.8,5.5,11.4-.9-1.9-1.9-3.9-3.1-5.8-7.5-12.3-18.4-20.5-32.4-24.1-1.3-.3-2.5-.6-3.7-.9-3.8-.8-7.4-1.6-10.8-2.5-1.1-.3-2.2-.6-3.3-.9-1.5-.4-2.7-.8-3.8-1.1-.3,0-.6-.2-.9-.3v-46.2l-.5.4h-18l53.6-42.1,9-7.1,9,7.1,9.9,7.7v-8.3h12v17.7l4,3.2,27.8,21.8Z"/>
  <path class="st10" d="M140.9,213.4l-30.2.3-4-31.4c17.5.8,30.4-21.8,32.9-26.5l1,45.2c-.7,0-1.3,0-2,0-1.6,0-3.4,0-5.1-.3-.1,0-.3,0-.4,0-1.7,0-3.2,1-3.7,2.6-.6,1.7,0,3.6,1.5,4.6.2.2,3.9,2.7,10,5.3Z"/>
  <path class="st10" d="M167,146.3s-23.8,1.7-26.9,8.7l-.4.6c-2.7,3.9-17.5,24-33.4,23.3-1,0-2-.2-3-.4-.3,0-.5,0-.8-.2,0,0-4.3-.2-6.3-7.4-1.3-4.5-1.6-11.7.7-23.3h3.3s-2.9,16,1.5,23.5c.4.7.9,1.3,1.4,1.8.7.7,1.6,1.3,2.6,1.6l-.5-3.7-3.2-24.4h64.9Z"/>
  <g>
    <path class="st6" d="M413.7,78.6c-9.5,0-13.6,11.4-17.1,25.1-.4.8-7.9,14.7-14,14.7s-5-1.1-5-7.4c0-10.8,9-22.8,13.7-25.9-.2-1.7-2.1-6.5-7.2-6.5-7.7,0-16,13.9-19.6,27.8-3,4.7-11.8,16.5-21.7,16.5s-9.2-5.6-9.7-10.5c1,.1,2,.1,3,.1,21.1,0,25.9-15.2,25.9-22.3,0-12.4-9.2-14.1-13.3-14.1-10.8,0-23.3,9.1-28.3,24-4.8,6-17.3,19.4-31.8,19.4s-21-4.9-21-26,22.6-57.1,39-57.1,8.1,2.8,8.1,8.4c0,12-8.8,20.7-19.2,20.7h-.2c1.4-.4,6-3.1,6-6.4s-1.7-3.1-3.1-3.1c-4.3,0-13.7,7.1-13.7,20s7,15.3,12.9,15.3c11.6,0,29.7-13.3,29.7-40.6s-6.6-21.5-19.2-21.5c-31.5,0-62.3,35.9-62.3,72s11.9,35.4,31.1,35.4,32.5-10.5,41.4-22.5c0,0,0,0,0,0,0,15.6,11.7,19.7,19.2,19.7s18.8-5.4,25.3-16.4c0,.6,0,1.2,0,1.8,0,11.4,5.3,15.1,11,15.1s14.1-7.8,19.3-16.7c-4.5,16.6-10.4,32.3-26,32.3s-10.5-5.7-10.8-7.4c.6,0,5.9-.7,5.9-4.6s-.5-2.4-2.6-2.4c-3.3,0-10.6,6.4-10.6,17.6s9,17.4,18.7,17.4c42.3,0,24.4-66,54.3-85.1-.1-2.5-2.3-7-8.2-7ZM347.1,87.8c2.3,0,4,1.4,4,4.7,0,9.4-10.9,14-18,14,.9-9.8,6.7-18.6,14-18.6Z"/>
    <path class="st5" d="M556.2,104.3c-.5,0-.9.1-1.2.4-3.8,4.7-9.1,10.5-14.3,10.5s-4.2-1.6-4.2-4.6c0-6.4,9.7-16,9.7-25.4s-2.3-8-7.8-8c-11,0-23.6,14-30.2,23.9,4.2-11.8,9.9-19,11.7-20.3,0,0-1.4-5.3-6.9-5.3s-11,2.3-16.8,19.4c-.6,1.8-1.2,3.6-1.7,5.5-1.3,1.1-2.8,1.8-4.4,1.8s-1.7-.2-2.6-.6c.6-2.9.9-6.1.9-8.9s-.1-1.5-.1-2.2c-.1-1.3-1-14.9-12.2-14.9h-.7c-12.1.6-24.7,17-27.2,34.3,0,0,0,.1-.1.2-2.7,3.6-5.8,8.5-10.5,8.5s-5-1.7-5-8.4.1-2.7.3-4.5c1.6-12.2,8.5-26.5,12.1-32.7,7-11.8,13.2-16.9,17-18.5,0-4.9-4.1-8.2-7.8-8.2s-9.4.7-18.6,15.7c-7.4,12-13.9,27.9-17.1,44.9-.8,3.7-1.1,7-1.1,9.8,0,13.5,7.8,17,12.2,17,7.1,0,13.3-5.3,18.2-15.2.8,12.4,8.2,15.2,13.4,15.2,9.4,0,17.8-7.9,22.2-19.7h.7c2.3,0,5.3-.8,8.1-2.9-.6,4-1,7.8-1,11.2,0,6.8,1.3,11.4,4.5,11.4,8.6,0,16.3-37,28.8-37s3.1,1.6,3.1,3.6c0,6.1-9.3,13.8-9.3,24.5s3.4,8.9,8.9,8.9c13.8,0,26.6-20.6,29.5-25.1.8-1.2,1.1-2.1,1.1-2.8,0-1.1-.9-1.6-1.7-1.6ZM480,91.6c-6.9,3.1-7.7,10.1-7.7,12.8v.5c.1,2.3,1.3,4.9,2.6,5.6-.7,1.5-4,5.7-8.2,5.7s-5.5-2.9-5.5-8.3c0-12.3,7.5-21.3,13-21.6h.3c4,0,5.4,3.8,5.4,5.2v.2Z"/>
  </g>
  <g>
    <path class="st11" d="M424,152c.8-1,1.7-1.7,2.7-2.2,1-.5,1.9-.9,2.9-1.4-1.3.7-2.5,1.5-3.7,2.4-1.1.8-2.1,1.6-2.8,2.3-1.1,1.1-2.2,2.3-3.3,3.6-1,1.3-2,2.7-2.7,4.1-.8,1.4-1.5,2.9-2,4.5-.5,1.6-.8,3.2-.9,4.8.6,0,1.3-.2,2.1-.7.8-.5,1.7-1.1,2.6-1.8.9-.7,1.8-1.5,2.8-2.4,1-.9,1.9-1.7,2.8-2.6.9-.9,1.7-1.7,2.5-2.4.8-.7,1.4-1.3,1.9-1.7h.4s.2,0,.2,0h0c0,.1.3.5.3.5.3,0,.5.2.7.5s.3.6.4.8c.1.2.2.5.2.8,0,.4,0,.6,0,.9s0,.6,0,.9c0,.3,0,.6-.1.9v.2c-.1,0,0,0,0,0v1.1c0,0,0,.2,0,.2l-.4.4h0c0,0,.2.7.2.7l-.3.2v.2c0,.4,0,1-.1,1.6s-.2,1.1-.3,1.6c0,.2,0,.4,0,.7-.1.3-.2.5-.3.6v.3c0,0-.1,1-.1,1h-.1c0-.1-.2.3-.2.3,0,0,0,.2,0,.4,0,.2,0,.3,0,.5s0,.3,0,.4c0,.1-.1.2-.2.2h-.4c0,.1.1.3.1.3,0,0,0,.1,0,.2,0,0,0,.1,0,.2,0,.2,0,.4-.2.5,0,0,0,.3-.2.6,0,.3-.2.5-.3.8-.1.3-.2.5-.3.8s-.2.4-.3.5h-.2s0-.1,0-.1l-.2.3v.2c0,.5-.4,1.3-1,2.2-.6.9-1.2,1.8-2,2.7-.7.9-1.5,1.7-2.3,2.3-.8.7-1.5,1-2,1l-.8.5c-.3,0-.5.1-.8.2-.3,0-.6.1-.9.1s-.2,0-.3,0c0,0-.2,0-.3,0h-.2c0-.1,0-.3,0-.3v.2c-.1,0-.2,0-.2,0,0,0,0,0,0,0-.7,0-1.6-.2-2.7-.5-1.1-.4-2.3-.8-3.4-1.4-1.1-.6-2.1-1.2-2.9-2-.8-.7-1.2-1.5-1.2-2.3s0-.7.2-1c.1-.3.3-.5.6-.8v.9c.3.1.5.2.7.3.2,0,.4.2.7.2,0,.2.2.3.4.5s.3.3.5.4c.2,0,.4.2.8.3.4,0,.7.2,1.1.3.4,0,.8.1,1.1.2.4,0,.6,0,.8,0,1.4,0,2.7-.4,3.8-1.3,1.2-.9,2.2-2,3.2-3.3.9-1.3,1.8-2.6,2.4-4.1.7-1.4,1.3-2.7,1.7-3.8-.7.5-1.3,1.1-1.9,1.8-.6.7-1.2,1.3-1.9,1.8-.7.6-1.4,1.1-2.2,1.5-.8.4-1.6.6-2.6.6-2.4,0-4.3-.6-5.6-1.9s-2-3.1-2-5.6.4-3.8,1.2-5.9c.8-2.1,1.9-4.1,3.2-6.1,1.4-2,2.9-3.9,4.7-5.7,1.8-1.8,3.7-3.4,5.6-4.8,2-1.4,4-2.5,6-3.3s4-1.2,5.9-1.2,1.1.1,1.5.4.9.6,1.2,1c.4.4.6.9.8,1.4.2.5.3,1,.3,1.5s0,.6-.1.8c0,.2-.2.5-.3.8h0c0-.1-.2,0-.2,0h-.2l-.2-.6h-.2c-.3-.4-.6-.6-1.1-.6s-1.1,0-1.8.3-1.3.4-2,.7c.2-.1.4-.3.6-.4.2-.1.4-.3.6-.5-.5,0-1.2.3-2.2.7-.9.4-1.9,1-3,1.7-1.1.7-2.2,1.4-3.3,2.3-1.1.9-2.1,1.7-3.1,2.5-.9.8-1.7,1.6-2.3,2.4-.6.8-1,1.4-1,1.9-.4.4-.7.9-1.1,1.5-.4.7-.7,1.2-.9,1.7.6-.6,1.2-1.4,1.8-2.3.6-.9,1.2-1.8,1.8-2.6s1.3-1.7,1.9-2.5c.7-.8,1.4-1.4,2.2-1.8ZM413.4,156.9h0c0,.1.2,0,.2,0h0c0,0-.1,0-.1,0ZM414,156c0,0-.2,0-.2.2,0,.2,0,.3,0,.3.2-.2.2-.3.2-.5h0ZM414.5,155.1c0,0,.1,0,.2,0,0,0,.2,0,.2,0h-.5ZM415.8,157.1v-.2l-.2.2v.2s.2-.2.2-.2ZM415.8,156.8c.2,0,.3-.2.4-.4h-.3c0,.1,0,.4,0,.4ZM417.5,151.9c0,0-.2,0-.4.2-.1.1-.3.3-.4.5-.1.2-.3.4-.4.6,0,.2-.2.3-.2.4,0,0,.3-.2.5-.4s.6-.5.9-.8.7-.6,1-.9.5-.5.6-.6h.2c1.7-1.8,3.6-3.3,5.8-4.5,2.2-1.2,4.5-2.2,6.7-3v-.2c-.3,0-.9.2-1.5.5-.7.2-1.3.4-2,.7-.7.3-1.3.5-2,.8-.6.3-1.1.6-1.4.9-.2,0-.4.2-.8.4-.4.2-.6.3-.6.3s0,0,0,0c0,0,0,0,0,0,0,.1-.3.4-.7.7-.4.4-.9.7-1.4,1.1-.5.4-1,.7-1.5,1.1-.5.4-.8.6-.9.7l1.6-1.5c-.5.4-1.1.9-1.6,1.4-.5.5-1,.9-1.5,1.5.3-.2.5-.3.7-.5.2-.2.4-.4.6-.6-.2.2-.4.4-.6.8-.3.3-.5.5-.7.6ZM416.7,155.9h0s0,.2,0,.2v-.2ZM417.2,152.2c0,0,0,.1,0,.2,0,0-.1.1-.2.1h0c0-.1.1-.4.1-.4h0s0,0,0,0ZM417.3,154.9h0c0,.1,0,.3,0,.3v-.2c0,0,0,0,0,0ZM417.5,157.5c0,0-.1.2-.1.3h0c0,0,.2-.3.2-.3h0ZM417.4,182.8c.2,0,.4-.2.7-.4.3-.2.6-.4.9-.6s.5-.5.7-.7c.2-.3.3-.5.4-.7-.1,0-.3.2-.5.4-.2.2-.4.5-.7.7-.2.3-.5.5-.7.7-.2.2-.5.4-.6.4l-.2.2ZM417.9,152.5l-.4.3h.2s.2-.3.2-.3ZM418,154.6h-.2s-.1,0-.1,0h.2c0,0,.1,0,.1,0ZM422.4,149.7c0,.2-.3.4-.7.8-.4.4-.8.8-1.3,1.3s-.9.9-1.4,1.4c-.4.4-.8.8-1,1.1.2,0,.4-.2.5-.3.1-.1.3-.3.5-.5,1-1.1,2.1-2,3.3-2.9s2.2-1.8,3.3-2.8c-.2,0-.4.2-.7.5-.3.2-.6.4-.9.6-.3.2-.6.4-.8.5-.3.2-.5.2-.7.2h0ZM430.1,146.9c-1.1.5-2.2,1.1-3.3,1.8-1.2.7-2.3,1.5-3.4,2.4-1.1.9-2.1,1.8-3,2.7s-1.7,2-2.3,3c1-.7,1.9-1.5,2.7-2.5.7-1,1.6-1.9,2.5-2.7.5-.5,1.1-.9,1.6-1.3.6-.4,1.2-.7,1.8-1.1.6-.4,1.2-.7,1.8-1.1s1.2-.8,1.7-1.2ZM419.5,187.3h-.1c0,0,.2-.2.2-.2h0c0,0,0,.2,0,.2ZM420.5,186.2h0c0,0,0,.2,0,.2h0c0,0,0-.2,0-.2ZM420.7,148.7h.1s.1,0,.1,0h0s-.2,0-.2,0ZM420.7,182.6s.1,0,.3-.2c.1-.1.3-.3.5-.5.2-.2.3-.3.4-.5.1-.2.2-.3.3-.3,0,0-.2.1-.3.2-.2.1-.3.3-.5.5-.2.2-.3.3-.4.5-.1.2-.2.3-.2.3ZM421.4,148.3l.4-.4h0c0,0-.4.3-.4.3h0ZM426.3,179.9c-.2.1-.5.5-1,1-.5.6-1,1.2-1.6,1.8s-1.1,1.3-1.5,1.9c-.5.6-.7,1-.8,1.2.3,0,.6-.3,1.1-.8.5-.5,1-1.1,1.6-1.8.5-.7,1-1.3,1.5-2s.7-1.1.8-1.3ZM424,181.4c-.5.4-.9.9-1.3,1.4-.4.5-.8,1-1.3,1.5h.2c.4-.5.9-.9,1.3-1.3.4-.4.8-1,1.1-1.5ZM427.4,161.4c-.1,0-.4.2-.7.6-.4.4-.8.8-1.2,1.2s-.8.9-1.2,1.3c-.4.4-.7.7-.8.9.2,0,.5-.3.9-.6.4-.4.9-.8,1.3-1.2.4-.4.8-.9,1.2-1.3.4-.4.5-.7.6-.9ZM428.3,175.8c-.4.3-.6.6-.7,1-.1.4-.2.8-.4,1.2h0c0,0,.2-.2.2-.2v-.4s.3-.3.3-.3c0-.3.1-.5.2-.7,0-.2.2-.4.3-.6ZM428.4,175.5h.2c0,0-.2-.5-.2-.5v.3c0,0,0,.2,0,.2ZM431.9,147.3c-.4.2-.8.4-1.1.6-.4.2-.8.4-1.2.5.4-.2.8-.4,1.2-.6.4-.2.8-.4,1.2-.5Z"/>
    <path class="st11" d="M431.6,172c0,0,0-.3,0-.5s0-.5,0-.7c0-.2.1-.5.2-.7l.2-.3c0-.1,0-.6.2-1.4.2-.8.5-1.7.9-2.8.4-1.1.8-2.3,1.3-3.6s.9-2.5,1.4-3.6c.5-1.1.9-2.1,1.2-3,.4-.8.6-1.4.8-1.7,0,0,.2,0,.3-.1s.2,0,.3,0,.2,0,.4.2c.2.1.4.3.6.5.2.2.4.4.6.5.2.2.3.3.4.4.3.5.6,1.1.9,1.7.3.6.4,1.2.5,1.8,0,0,0,0,.1,0,0,0,.1,0,.1,0,.2,0,.3,0,.4-.1,0,0,.2-.1.4-.1h0c0,.3-.1.5-.3.7l.5-.5c-.2.2-.3.3-.4.5-.1.2-.3.3-.4.5,0-.1,0-.2,0-.3,0,0-.1.1-.2.2,0,.1-.2.3-.3.5,0,.2-.2.3-.2.5,0,.1,0,.2,0,.3s0,.1,0,.1c0,0,0,0,0,.1,0-.2.3-.5.6-.8.3-.3.5-.5.7-.7v-.3c.1,0,.4-.3.8-.6s.8-.7,1.2-1.1c.4-.4.8-.8,1.2-1.2.4-.4.6-.6.7-.7h-.3c-.4.1-.7.4-1,.6-.3.2-.6.5-.9.7h-.2c0,.1,0,.2,0,.3,0,0,0,.2-.1.3,0,0-.1.2-.2.2,0,0-.2.1-.2.1.2-.2.2-.3.2-.5-.3.3-.6.5-.8.7-.3.2-.6.3-1.1.3.3-.4.7-.8,1.1-1.4.5-.5,1-1,1.5-1.5.5-.5,1.1-.9,1.7-1.2.6-.3,1.1-.5,1.7-.5.8,0,1.5.2,1.9.5.4.3.9.8,1.5,1.3,0,.1.2.3.4.5.2.2.2.4.2.5v.6c.3,0,.4.1.4.4,0,.3,0,.4,0,.5-.2,0-.2.2-.3.5,0,.2,0,.4,0,.6s0,.3,0,.4c0,0-.1.2-.3.3,0,.2,0,.3-.1.4-.1.1-.2.2-.4.3v.5h-.2v-.2c0,0-.4,0-.4,0l.2.4c-.2.1-.4.2-.7.2,0,.2-.2.3-.3.5,0,.1-.2.3-.2.5l-.6.3c.2,0,.3,0,.4,0,.1,0,.2,0,.3-.2l.5-.3-1.2,1.2-.2-.2.2-.3h-.6c0,0-.3-.3-.3-.3v-.2l-.2.2c-.1,0-.4,0-.7-.1-.4,0-.5-.2-.5-.3s0-.1,0-.2c0-.1,0-.2,0-.3h0c-.1-.2-.3-.2-.6-.3-.2,0-.4,0-.5,0-.2,0-.4.2-.7.5s-.6.8-1,1.3c-.4.5-.8,1.1-1.2,1.7-.4.6-.8,1.2-1.2,1.8-.4.6-.7,1.1-1,1.6-.3.5-.5.8-.6,1,.2-.4.5-1,1-1.7.4-.7.9-1.5,1.3-2.2s.9-1.5,1.4-2.1c.5-.7.9-1.2,1.2-1.5.2-.2.4-.4.6-.6.2-.2.4-.5.5-.6-1.1.9-2,2-2.9,3.3-.9,1.3-1.8,2.6-2.6,4-.8,1.4-1.6,2.8-2.4,4.2-.8,1.4-1.6,2.7-2.4,3.8l-.9,1.1c-.2,0-.3,0-.4.1,0,0-.2.2-.3.2l-.2.4v-.9h0c-.2.2-.4.3-.4.3,0,0-.1,0-.1,0s0,0,0,.1c0,0,0,.2-.2.4,0,.2,0,.2-.2.2h0s.2-1.1.2-1.1c0-.2.2-.5.3-.7.1-.2.2-.5.3-.6.1-.4.3-.8.5-1.3.2-.5.4-1.1.7-1.7s.4-1.1.6-1.7.3-1,.4-1.3h0c-.2.3-.3.7-.5,1.3-.2.6-.4,1.1-.6,1.7-.2.6-.4,1.1-.6,1.6-.2.5-.4.8-.5,1,0,0,0-.2,0-.3,0-.1,0-.2,0-.3-.3.4-.4.9-.5,1.4,0,.5-.2,1-.4,1.5h0s0,0,0,0c0-.2,0-.4.2-.7-.2.2-.3.4-.4.8,0,.4-.2.6-.4.8,0-.1-.1-.3-.2-.4,0-.1,0-.3,0-.4,0-.3,0-.6.1-.9,0-.3.2-.5.5-.6,0-.4,0-.9.1-1.4s.3-1,.4-1.3c.2-.2.3-.4.3-.6h0c0-.2-.1-.2-.2-.3,0,0-.1-.2,0-.2,0-.1,0-.3.1-.5,0-.2.1-.4.2-.5h0c0,.1.3.3.3.3,0-.2,0-.4-.1-.6s-.1-.4-.1-.6l-.4.2-.2.3v.3s.3.1.3.1l-.3.3c0,1-.2,2-.5,3-.4,1-.6,2-.9,2.9,0,0-.2-.2-.3-.3s-.1-.2-.1-.4,0-.4,0-.7c0-.4.1-.8.2-1.2,0-.4.2-.8.2-1.1s.2-.6.2-.7h.1c0-.3,0-.4,0-.5s-.1-.3-.2-.4h.1c0-.1,0-.2,0-.2h0ZM432.3,177.3h-.1c0,0-.2,0-.2,0h.1c0,0,.2,0,.2,0ZM433,172.7h-.2c0-.1,0-.2,0-.2h0v.2c.1,0,0,0,0,0ZM433.9,169.8h0c-.2,0-.2,0-.2-.2h-.2c0,0,.1,0,.1.1,0,.1,0,.2,0,.3h.3s0-.3,0-.3ZM433.4,168.9h0c0,.1.3.2.3.2h.1c0,0-.2-.2-.2-.2v-.2h-.2v.2ZM433.4,175.5v-.3c0,0,.2,0,.2,0v.3c0,0-.2,0-.2,0ZM434.2,167.1c0,0-.2.2-.3.5-.1.2-.2.4-.2.5h0s.2-.2.2-.2c0,0,0-.2.1-.3,0,0,0-.2,0-.3h0ZM434.8,165.7v-.2c0,0-.1.1-.2.2,0,.1,0,.2,0,.2h0c0,.1.2-.2.2-.2ZM434.8,171.7l-.2.4h0s.2-.1.2-.1v-.2ZM435.6,163.6h0c0-.1-.1,0-.1,0v.2c0,0,.2-.2.2-.2ZM435.8,163.1h0c0,0,0,0,0,0h.1c0,0,0,0,0,0ZM436,163.8v-.3s-.2.2-.2.2v.2c0,0,.2-.1.2-.1ZM436.4,168.6h-.1s0,.3,0,.3h0s.1,0,.1,0v-.2ZM436.7,161.3h0c0-.1,0,0,0,0h0c0,.1,0,0,0,0ZM436.9,167.3c0-.1,0-.2,0-.3h0c-.1,0-.2.1-.2.2h0ZM437.7,165.3v-.2h0c0,0,0,.2,0,.2ZM437.8,172c0,0,.2-.2.4-.5.2-.3.3-.5.3-.6l-.7,1.1ZM438.2,169.3h0c0,0,0-.2,0-.2v.2ZM438.6,163.4h0c0,0,0,0,0,0h0c0,.1,0,0,0,0ZM439.1,156.1h0c0,0,0-.2,0-.2h0c0,.1,0,.2,0,.2ZM439.2,170.8v-.2c.1,0,.3,0,.3,0h-.2c0,.1,0,.1,0,.1ZM439.7,170.2c.1-.3.2-.4.3-.6l-.3.6ZM440,169.6s0,0,0,0h0ZM441.9,164.7c-.2.4-.4.9-.6,1.4-.2.5-.4.9-.6,1.4,1-1.5,2-3,3-4.5,1-1.5,2.1-2.8,3.5-4.1v-.5c0,0,0,0,0,0-.8,1-1.7,2-2.6,3-.9,1-1.7,2-2.3,3.1l-.4.2ZM442,162.9h0c0,0,.2,0,.2,0,0,0,0-.2.1-.2.2-.4.5-.8.8-1.1.3-.3.6-.7.9-1,.3-.3.6-.7.9-1,.3-.4.5-.7.7-1.1-.1,0-.2.1-.4.2-.1,0-.2.2-.4.2,0,0-.2.3-.5.6-.2.3-.5.7-.8,1.1-.3.4-.5.7-.7,1s-.4.4-.4.5l-.5,1.1ZM446.9,160h-.2v.2c-.1,0,0,0,0,0l.2-.2ZM447.5,158.5h0c0,0,0,0,0,0h0c0-.1,0,0,0,0ZM448.4,161.5s0,0,0,0,0,0,0,0h-.1c0,0,0,.2,0,.2ZM449.7,161.1v.2c.1,0,.3-.2.3-.2h-.1c0-.1-.1,0-.1,0ZM450.4,160.2h.3c0,0,0-.8,0-.8l-.3.6h-.1ZM451,162.4c0,.1-.2.3-.4.5v-.2c0,0,.4-.2.4-.2Z"/>
    <path class="st11" d="M468.8,160c0,.6-.2,1.3-.5,2-.4.7-.8,1.5-1.3,2.2-.5.7-1.1,1.3-1.7,1.9s-1.2,1-1.7,1.3l-.2.3c.2,0,.5-.2.8-.5.3-.2.7-.5,1-.8s.6-.6.9-.9.5-.5.7-.7h.4c-.4.2-.8.7-1.5,1.2s-1.3,1.1-2,1.6c-.7.5-1.5,1-2.2,1.4-.7.4-1.3.6-1.8.6h-.2c-.2,0-.5.2-.8.3-.4.1-.7.2-.9.2s-.3,0-.5,0c-.1,0-.3,0-.5,0,0,.4-.1.8-.2,1.2,0,.4-.1.8-.1,1.2s0,.4,0,.6c0,.2,0,.4.1.6,0,.2.2.4.3.6.1.2.3.2.5.2.8,0,1.5-.1,2.1-.4.6-.2,1.2-.5,1.8-.9.6-.4,1.1-.7,1.7-1.1.6-.4,1.2-.8,1.8-1.1-.3.4-.6.8-1,1.2-.4.4-.8.7-1.3,1,.5-.2,1-.5,1.4-.9.4-.4.9-.8,1.4-1l-.2.3c.1,0,.3,0,.5,0v.3s0,.1,0,.1c-.4.4-.9.9-1.3,1.4-.4.5-.9.9-1.4,1.3h.1c-.2.2-.5.5-.9.9-.4.3-.9.6-1.3.9-.5.3-1,.5-1.5.7-.5.2-.9.3-1.3.3-1.1,0-2.2-.2-3.1-.6-.9-.4-1.7-1-2.4-1.7-.7-.7-1.2-1.6-1.6-2.5s-.5-2-.5-3.1.4-3.1,1.1-4.9c.7-1.8,1.7-3.5,2.9-5.1,1.2-1.6,2.6-2.9,4.1-4,1.5-1.1,3.1-1.6,4.7-1.6s1.5.2,2.2.6,1.3.9,1.7,1.5c.5.6.9,1.3,1.1,2.1.3.8.4,1.5.4,2.3ZM456.7,159.1c.8-.7,1.6-1.3,2.4-1.9.8-.6,1.7-1.2,2.4-1.9-.2,0-.4,0-.6,0h-.3c-.3.3-.6.6-1,.9s-.8.6-1.2,1-.8.7-1.1,1-.6.6-.6.9h0ZM457.9,157.2c-.2.2-.3.3-.5.5-.2.1-.3.3-.5.5.2-.2.3-.3.5-.5.2-.1.3-.3.5-.5ZM458.2,166.5c.6-.3,1.3-.8,2.2-1.5.9-.7,1.7-1.4,2.5-2.2.8-.8,1.5-1.6,2-2.5s.8-1.7.8-2.4,0-.3-.2-.3c-.6,0-1.3.4-2,1.1-.7.7-1.5,1.6-2.2,2.6-.7,1-1.3,1.9-1.9,2.9-.6,1-1,1.7-1.2,2.2ZM460.3,161.8c0,0-.2.3-.4.5-.2.2-.3.4-.5.7-.2.2-.3.4-.5.7s-.2.4-.2.5h0c.3-.4.5-.7.8-1.1s.5-.8.7-1.2ZM459.1,159.1c.3-.1.6-.4,1-.8s.7-.7.9-1c-.4.3-.7.5-1.1.8s-.7.6-.9.9ZM459.8,166.7c.7-.4,1.5-.9,2.4-1.6.9-.7,1.5-1.4,2-2.1-.3,0-.5.2-.7.3-.2.2-.4.4-.5.6-.5.5-1.1,1-1.6,1.3-.6.4-1.1.8-1.5,1.4ZM463.2,157.6c-.2,0-.4.3-.7.5-.3.3-.6.6-.9.9-.3.3-.6.6-.9.9s-.5.5-.6.7c.5-.5,1.1-1,1.6-1.5.5-.5,1-1,1.5-1.6ZM464.4,157.8c-.2,0-.5.2-.9.5-.4.3-.8.6-1.2,1-.4.4-.8.7-1.1,1.1-.3.3-.5.6-.5.8h0c.6-.6,1.2-1.1,1.8-1.7s1.2-1.1,1.8-1.7ZM463,165.8c.4-.3.9-.6,1.2-1,.4-.4.8-.7,1.1-1.1l-2.4,2.1ZM463.8,163.2l-.2.4-.4.2.6-.6ZM466,164.7c0,0-.2.1-.4.3-.2.2-.5.4-.7.6s-.6.5-1,.9c0,0,.2,0,.5-.2.2-.2.4-.4.6-.6s.4-.4.6-.6c.2-.2.3-.3.4-.4ZM464.6,162.3l-.5.4c0,0,.2,0,.2,0,0,0,.1,0,.2-.1h0s0,0,0,0h0c0-.1-.1-.3-.1-.3ZM467.5,164.1c0,0,0-.2.2-.3.1-.2.2-.3.3-.3,0,0,0,.2-.2.4-.1.1-.2.2-.3.3Z"/>
    <path class="st11" d="M486,160c0,.6-.2,1.3-.5,2s-.8,1.5-1.3,2.2-1.1,1.3-1.7,1.9c-.6.6-1.2,1-1.7,1.3l-.2.3c.2,0,.5-.2.8-.5.3-.2.7-.5,1-.8s.6-.6.9-.9c.3-.3.5-.5.7-.7h.4c-.4.2-.8.7-1.5,1.2-.6.6-1.3,1.1-2,1.6-.7.5-1.5,1-2.2,1.4-.7.4-1.3.6-1.8.6h-.2c-.2,0-.5.2-.8.3-.4.1-.7.2-.9.2s-.3,0-.5,0c-.1,0-.3,0-.5,0,0,.4-.1.8-.2,1.2,0,.4-.1.8-.1,1.2s0,.4,0,.6c0,.2,0,.4.1.6,0,.2.2.4.3.6.1.2.3.2.5.2.8,0,1.5-.1,2.1-.4.6-.2,1.2-.5,1.8-.9.6-.4,1.1-.7,1.7-1.1s1.2-.8,1.8-1.1c-.3.4-.6.8-1,1.2-.4.4-.8.7-1.3,1,.5-.2,1-.5,1.4-.9.4-.4.9-.8,1.4-1l-.2.3c.1,0,.3,0,.5,0v.3s0,.1,0,.1c-.4.4-.9.9-1.3,1.4s-.9.9-1.4,1.3h.1c-.2.2-.5.5-.9.9-.4.3-.9.6-1.3.9-.5.3-1,.5-1.5.7-.5.2-.9.3-1.3.3-1.1,0-2.2-.2-3.1-.6-.9-.4-1.7-1-2.4-1.7s-1.2-1.6-1.6-2.5c-.4-1-.5-2-.5-3.1s.4-3.1,1.1-4.9c.7-1.8,1.7-3.5,2.9-5.1,1.2-1.6,2.6-2.9,4.1-4,1.5-1.1,3.1-1.6,4.7-1.6s1.5.2,2.2.6,1.3.9,1.7,1.5c.5.6.9,1.3,1.1,2.1.3.8.4,1.5.4,2.3ZM473.9,159.1c.8-.7,1.6-1.3,2.4-1.9.8-.6,1.7-1.2,2.4-1.9-.2,0-.4,0-.6,0h-.3c-.3.3-.6.6-1,.9-.4.3-.8.6-1.2,1-.4.3-.8.7-1.1,1s-.5.6-.6.9h0ZM475.1,157.2c-.2.2-.3.3-.5.5-.2.1-.3.3-.5.5.2-.2.3-.3.5-.5.2-.1.3-.3.5-.5ZM475.3,166.5c.6-.3,1.3-.8,2.2-1.5.9-.7,1.7-1.4,2.5-2.2.8-.8,1.5-1.6,2-2.5s.8-1.7.8-2.4,0-.3-.2-.3c-.6,0-1.3.4-2,1.1-.8.7-1.5,1.6-2.2,2.6-.7,1-1.3,1.9-1.9,2.9s-1,1.7-1.2,2.2ZM477.4,161.8c0,0-.2.3-.4.5s-.3.4-.5.7-.3.4-.5.7c-.1.2-.2.4-.2.5h0c.3-.4.5-.7.8-1.1.3-.4.5-.8.7-1.2ZM476.3,159.1c.3-.1.6-.4,1-.8.4-.4.7-.7.9-1-.4.3-.7.5-1.1.8s-.7.6-.9.9ZM477,166.7c.7-.4,1.5-.9,2.4-1.6.9-.7,1.5-1.4,2-2.1-.3,0-.5.2-.7.3-.2.2-.4.4-.5.6-.5.5-1.1,1-1.6,1.3-.6.4-1.1.8-1.5,1.4ZM480.4,157.6c-.2,0-.4.3-.7.5-.3.3-.6.6-.9.9s-.6.6-.9.9c-.3.3-.5.5-.6.7.5-.5,1.1-1,1.6-1.5.5-.5,1-1,1.5-1.6ZM481.6,157.8c-.2,0-.5.2-.9.5-.4.3-.8.6-1.2,1-.4.4-.8.7-1.1,1.1s-.5.6-.5.8h0c.6-.6,1.2-1.1,1.8-1.7.6-.5,1.2-1.1,1.8-1.7ZM480.2,165.8c.4-.3.9-.6,1.2-1,.4-.4.8-.7,1.1-1.1l-2.4,2.1ZM481,163.2l-.2.4-.4.2.6-.6ZM483.1,164.7c0,0-.2.1-.4.3-.2.2-.5.4-.7.6-.3.2-.6.5-1,.9,0,0,.2,0,.5-.2.2-.2.4-.4.6-.6s.4-.4.6-.6c.2-.2.3-.3.4-.4ZM481.8,162.3l-.5.4c0,0,.2,0,.2,0,0,0,.1,0,.2-.1h0s0,0,0,0h0c0-.1-.1-.3-.1-.3ZM484.7,164.1c0,0,0-.2.2-.3.1-.2.2-.3.3-.3,0,0,0,.2-.2.4-.1.1-.2.2-.3.3Z"/>
    <path class="st11" d="M506.1,158.9s0,0-.1,0l-.2.6v.2s.2-.2.2-.2h0c0-.1,0-.4,0-.4,0,0,0,.3,0,.5,0,.5,0,1.1-.2,1.6-.1.5-.3,1-.5,1.5v.2h-.4c0,.1,0,.3,0,.3v.5c-.1,0,0,.1,0,.1h.1c0,.1-.4.3-.4.3h0c0,.2,0,.3,0,.3,0,0,0,.1,0,.2,0,0,0,.2,0,.2l-.3.2c0,.4-.1.8-.3,1.1-.2.3-.3.7-.4,1.1l-.4.5c0,.2-.1.4-.3.5-.1,0-.2.3-.2.5v.4h.1c0,0-.1.3-.2.6,0,.3-.2.5-.3.7-.3,1-.6,1.9-1,2.8-.3.9-.7,1.9-1.1,2.8v.3c.1,0,.2-.2.2-.3s0-.2,0-.3h.2s.1-.6.1-.6h0c.2-.7.4-1.2.7-1.7.3-.5.5-1.1.6-1.6l.2-.3h0c0,.6-.2,1.1-.4,1.7-.2.5-.5,1-.8,1.4,0,.3-.2.7-.4,1.1s-.3.8-.3,1.1,0,.2,0,.2v.3c0,0-.1,0-.1,0h-.2c0,.1-.4,0-.4,0-.1,0-.2,0-.4,0-.1-.1-.2-.2-.3-.3v.2c0,0,0,.2,0,.4,0,.2,0,.3-.2.3-.6,0-1.1-.2-1.5-.6-.4-.4-.8-.8-1.1-1.4s-.6-1.1-.7-1.7c-.2-.6-.2-1.1-.2-1.6,0-1.2.2-2.5.5-3.8.4-1.4.7-2.6,1.1-3.8-.1,0-.3.2-.5.3-.2.2-.4.4-.5.6-.2.2-.4.4-.5.6-.2.2-.3.4-.4.5.4-.6.8-1.1,1.2-1.6.4-.5.8-1.1,1.2-1.7-.3.3-.7.8-1.3,1.6-.6.8-1.2,1.6-1.8,2.4-.6.8-1.2,1.6-1.7,2.2-.5.7-.8,1.1-1,1.1v-.6l-.6.9h0s.5,0,.5,0c-.1.3-.3.6-.5.9-.2.4-.4.7-.5.9l.7-.9c-.1.2-.4.6-.7,1.1-.4.5-.7,1.1-1.1,1.7-.4.6-.8,1.1-1.2,1.5-.4.4-.7.7-.9.7h0s-.3.2-.3.2h0c0-.2,0-.2-.1-.2-.1,0-.2,0-.3.1,0,0-.2.1-.3.1s-.2,0-.2-.2c0-.1,0-.2,0-.3s0-.1,0-.2c0,0,0-.1,0-.2,0,.2-.1.4-.2.6,0,.3-.2.4-.4.4s0,0,0,0c0,0,0,0,0,0-.2-.2-.2-.5-.2-.8s0-.3,0-.4c0,0-.1.2-.1.3,0,.1,0,.3-.1.4-.3,0-.4-.3-.4-.7,0-.4,0-.8,0-1,0-.9,0-1.9,0-2.8s.1-1.9.2-2.8c0-.5.2-1.2.5-2.2.3-1,.6-2,1-3.2.4-1.1.9-2.3,1.4-3.6.5-1.2,1.1-2.3,1.6-3.3.6-1,1.1-1.8,1.7-2.5s1.1-1,1.6-1,.1,0,.2,0c0,0,.1,0,.2,0-.4.8-.9,1.6-1.4,2.3-.5.7-.9,1.5-1.3,2.4.4-.4.7-.9,1-1.4.2-.5.6-1,1.1-1.3,0,0,.2-.2.3-.4.1-.2.2-.4.4-.5s.3-.4.4-.5c.1-.1.3-.2.4-.2s.1,0,.1,0c0,0,0,0,.1,0,0,.1,0,.3,0,.4,0,.2,0,.3,0,.4h.1s.3-.4.3-.4l.3.5c.2,0,.3.2.4.5,0,.3.1.5.1.6,0,.3,0,.6-.1,1.1,0,.5-.2.8-.3,1.1v.3c.1,0,.2-.2.3-.5s0-.5,0-.6v-.2c.2.1.2.3.2.5s0,.5-.1.8c0,.3-.2.6-.3.9s-.2.6-.3,1-.2.6-.3.8c.7-.6,1.3-1.2,1.8-1.8.5-.6,1.1-1.2,1.7-1.8.6-.6,1.2-1.1,1.8-1.6.6-.5,1.4-.9,2.2-1.4h1.1c0,0,0,.2,0,.3,0,0,0,.2,0,.3.3,0,.4,0,.6,0h0c.2,0,.3.1.5.3.2.2.4.4.6.6.2.2.4.4.5.7.2.2.3.4.4.5,0,.3,0,.6,0,.7s0,.1,0,.2c0,0,0,.1,0,.2h0s0,0,0,0h0ZM485.6,174.4s0,0,0-.2,0-.1,0-.2h0c0-.1-.1.2-.1.2h0ZM487.1,173.6c.2-.4.4-.9.6-1.4.2-.6.4-1.2.6-1.8.2-.6.3-1.3.5-1.9.1-.6.3-1.1.4-1.6-.4,1.1-.8,2.2-1.2,3.3-.4,1.1-.7,2.2-.9,3.4ZM489.5,165.9c0,0,0,.1,0,.2s0,.2,0,.2h0s0-.5,0-.5ZM490.5,173.8h-.1,0s0,0,0,0ZM490.5,157.8v-.2c0,0,.2,0,.2,0h0s-.1.1-.1.1h0ZM491.1,172.8h-.2c0,0,0,.2,0,.2h.1v-.2ZM491.1,171.9l-.2.2h0c0,0,.2,0,.2,0h0ZM491,166.8c.2-.4.4-.9.6-1.4.2-.5.3-.9.5-1.4,0,.2-.2.4-.3.6-.1.3-.3.5-.4.8-.1.3-.2.5-.3.7,0,.2-.1.4-.1.5h0ZM491.8,167c0,.2-.2.4-.4.7-.2.3-.2.6-.2.7,0,0,0,0,.1-.2,0-.1.1-.3.2-.5,0-.2.1-.3.2-.5,0-.1,0-.2,0-.3ZM492,168.6v.3c0,0,0-.1,0-.2,0,0,.1-.2.2-.2h-.2ZM491.9,171.6c0-.2.3-.5.6-.9.3-.4.6-.9.9-1.3.3-.5.6-.9.9-1.3s.5-.6.6-.7c-.3.6-.7,1.2-1.1,1.7-.4.5-.8,1-1.2,1.7,0,.1-.1.3-.2.6,0,.3-.2.4-.4.4h-.1ZM492.2,166.1h-.1c0,.1,0,.2,0,.2h0c0-.1,0-.2,0-.2ZM492.2,163.6h0c0,0,.1,0,.1,0h0c0,0-.2,0-.2,0ZM492.2,168.2c0,0,0,0,.1,0h0c0,0,0-.2,0-.2h-.1ZM493,168.9c-.1.1-.2.3-.3.4,0,.1-.2.3-.3.5.3-.2.4-.5.6-.9ZM495.1,162.1c-.3.6-.6,1.2-1,1.7-.4.5-.7,1.1-1,1.7.9-1.2,1.8-2.5,2.8-3.7,1-1.2,2.1-2.4,3.3-3.4.3-.2.5-.4.7-.6.2-.2.4-.4.6-.7h-.2l-.2.3c-.5.2-1,.4-1.4.9s-.8.9-1.1,1.3c-.4.5-.7.9-1.1,1.4-.4.5-.8.8-1.2,1.1ZM494.8,159.6c-.4.5-.6,1.2-.9,1.9-.2.7-.5,1.4-.6,2,0,0,.2-.3.4-.7.1-.3.3-.7.5-1.1s.3-.8.4-1.2c.1-.4.2-.7.3-.8ZM493.7,156c0,0-.1.2-.2.3,0,0-.2.2-.3.3.2,0,.4-.3.5-.5h0ZM493.4,168.3c0,0,.2-.2.3-.3,0-.1.2-.2.2-.3,0,0-.2.2-.3.3,0,.1-.2.2-.2.3ZM493.8,166.1c0,0,.2,0,.2-.2s0-.2,0-.3h0v.3c-.1,0-.3.1-.3.1h0ZM495.6,165.3c-.4.3-.7.6-1,1.1s-.5.9-.7,1.2c.2-.2.4-.4.5-.7.1-.3.3-.5.6-.6l.5-1ZM494.3,165.4h.1c0,0-.1-.2-.1-.2h-.1c0,.1.1.2.1.2ZM494.8,159.2v.2-.2s0,0,0,0ZM495.5,166.7h0c-.1.3-.3.4-.5.5l.5-.5ZM495.6,157.1v-.2c.1,0,.2.1.2.1v.2c-.1,0-.2-.1-.2-.1ZM496.9,163.7c-.1,0-.2.2-.3.4,0,.1-.1.3-.1.5l.5-.8ZM497.1,163.6c0,0,.1,0,.2-.2,0-.1.1-.2.2-.3l-.3.5ZM497.5,161.2h0s0,0,0,0h0c0,0,0,0,0,0ZM497.5,162.9c0,0,.2-.1.3-.2s.3-.2.4-.4c.1-.1.3-.3.4-.4,0-.1.1-.2.1-.3,0,0-.2,0-.3.2s-.2.2-.4.4c-.1.1-.2.3-.4.4-.1.1-.2.2-.2.3ZM497.6,169.7l.2-.2h-.1c0-.1,0,0,0,0h0ZM497.8,171.2h0s0,0,0,0h0s0,.1,0,.1h0ZM498.1,171h0s-.2-.2-.2-.2h-.1s.3.2.3.2ZM498.3,171.3h-.2,0s.2,0,.2,0ZM499.1,167.9h-.1c0,0,0,.3,0,.3h0v-.3ZM499.2,172.8h.1s-.2,0-.2,0h0ZM499.3,172.6h0c0,0-.2-.3-.2-.3v.3ZM499.3,176.8h-.1s.1.3.1.3h0c0,0,0-.3,0-.3ZM499.5,171.5c0,0-.1.2-.1.3v-.2c.1,0,.1-.1.1-.1ZM499.6,165.5h0c0,0,0,0,0,0h0c0,0,0,0,0,0ZM500.4,168.7c0,.2-.2.4-.4.5-.2.1-.3.3-.3.5h.2c-.1.2-.2.4-.3.6,0,.2-.2.4-.3.6v.2c.2,0,.2,0,.3,0,0,0,.1,0,.1,0h.3c0,0,0-.1-.1-.2s0-.1,0-.2,0-.1,0-.2c0,0,.1-.2.2-.2,0-.1,0-.2,0-.3,0-.2,0-.4.2-.6.1-.2.2-.5.2-.7ZM499.5,165h0v.3c0,0,0-.2,0-.2h0ZM499.6,171.3c0,0,.1,0,.2,0,0,0,0,0-.1-.2h0ZM500.4,175h0c0,0,0-.2-.2-.3v.2s.2,0,.2,0ZM500.4,162.2v-.3c0,0,0-.2,0-.2v.5ZM501.4,171.7s0,0-.2.2c0,.1-.2.3-.2.5,0,.2-.1.4-.2.5,0,.2-.1.3-.2.3v.3c0,0,0,.2-.1.4s0,.3,0,.4v.3c.2-.4.4-.9.6-1.4.2-.5.4-1,.4-1.4h0ZM500.5,167.9v.2s.2-.3.2-.3h0s0,.2,0,.2h.2c0-.2,0-.4-.3-.4v.2ZM500.6,156.8h.1c0,.1,0,0,0,0h0c0,0,0,0,0,0ZM500.7,167.5h0l.3-.3-.3.3ZM500.9,160.6h0c0,.1,0,.2,0,.2v-.2ZM501,166.8h0s.2,0,.2,0h0c0-.1,0-.3,0-.3v.4ZM501.1,171.6h0c0,.1.1,0,.1,0h0c0,0-.1,0-.1,0ZM501.5,165.8c0,0,0-.2,0-.4v.4ZM501.5,170.5h0c0,.1,0,.2.1.3,0,0,.1.1.2.1h0s-.3-.4-.3-.4ZM502.4,169.3v-.3s-.2-.1-.2-.1c-.1.3-.2.6-.2.8h0c0-.1,0,0,0,0,0,.1,0,.2,0,.2,0,.2,0,.3.2.3s0,0,0,0c0,0,0,0,0,0h0c0-.1,0-.5,0-.5l.3-.2h0ZM501.8,164.4h0c0,.1,0,0,0,0h0c0,0,0,0,0,0ZM502.8,167.2c-.2.2-.3.3-.3.4v.6c0-.1-.2-.2-.3-.4,0-.1-.2-.2-.3-.3l.2.3v.3c0,0,.3.2.3.2v.6c0-.4.2-.7.5-.9v-.3c.1-.2,0-.3,0-.5h.1c0,0,0-.1,0-.1h-.3ZM502,168.6h0s.2,0,.2,0h-.2ZM502.2,163.5h0s.1,0,.1,0h-.1c0,0,0,0,0,0ZM502.5,162.4v.2c.1,0,.2,0,.3,0,0,0,.2-.1.2-.2v-.3s-.2-.2-.2-.2l-.2.5ZM502.6,168.1h.2c0-.1,0,0,0,0h-.2ZM502.8,167h0c0,0,0,0,0,0h0c0,0,0,0,0,0ZM503.1,170.7h0c0,0,0,.3,0,.3h-.2c0,0,.2-.3.2-.3ZM503.2,161.4v.2c0,0,0,.2,0,.2h0v-.3h0ZM503.5,166.3v.2s0-.2,0-.2c0-.3,0-.4,0-.6,0,0-.1.2-.1.3l.2.2ZM503.4,169.9h.2c0,.1-.4.6-.4.6v-.6ZM503.4,164.9h0c0,.1,0,0,0,0h0c0-.1,0,0,0,0ZM503.5,168.5h0c0,0,0-.2,0-.2h0c0,0,0,.2,0,.2ZM503.5,163.7h.4c0,0-.2,0-.2,0h-.2ZM503.6,165.7v-.4s-.1,0-.1,0v.3h.1ZM503.6,160.2h0c0,.1,0,0,0,0h0c0,0,0,0,0,0ZM503.6,169.4c0,0,.1-.1.2-.2,0,0,0-.2.1-.2v.5s-.3,0-.3,0ZM504.1,165.7h-.2c0,0,0,.3,0,.3h0v-.3ZM504.1,168.7v.2s-.1,0-.1,0v-.2h.1ZM504,163.5h0s.2,0,.2,0h-.1s-.1,0-.1,0ZM504.1,168.1h0c0,0,0-.1,0-.1h.3s0,0,0,0v.3c0,0-.3,0-.3,0ZM504.1,163.1c0,0,.1-.2.2-.3,0-.1.2-.2.3-.2h-.2c0,0-.3.1-.3.1v.3ZM504.6,161.9h0v.2h.1v-.2h0ZM504.5,166.7h0c0-.1,0-.2,0-.2h0c0,0,0,.2,0,.2ZM504.7,164.5h0c0,0,0,0,0,0h0c0,0,0,0,0,0ZM504.8,160.8h.1s0,0,0,0h-.2ZM505,162.5h0c0,0-.2-.2-.2-.2h0c0,0,.2.2.2.2ZM504.9,163.1h0c0,0,0-.2,0-.2h0c0,.1,0,.2,0,.2ZM505.4,158h0c0,.1,0,0,0,0h0ZM505.8,161.2c0,0-.1-.1-.1-.2,0,0,0-.2,0-.2h0l-.2.2h0c0,.2.1.2.2.2s.2,0,.2,0h0ZM505.6,164.3v.2c0,0,0,0,0,0v-.2c0,0,0,0,0,0ZM505.7,159c0,0,0,0,0,.2v-.2ZM505.9,158.1c0,0-.1,0-.2.1,0,0,0,.2,0,.2s0,0,0,0,0,0,0,0v-.3c0,0,.3.1.3.1v-.3h0ZM505.7,160.8c0,0,.2.1.2.1h0c0-.1-.2-.1-.2-.1ZM505.8,160.1h.2c0-.1,0-.3,0-.3v.3Z"/>
    <path class="st11" d="M529.6,180.1c-.5,0-1,0-1.5-.2-.5-.2-.9-.3-1.4-.4-1.4-.4-2.6-.9-3.7-1.7s-2-1.7-2.7-2.7c-.7-1.1-1.3-2.2-1.6-3.5-.4-1.3-.5-2.6-.5-4s.3-3.5.8-5.5c.5-2,1.3-3.9,2.2-5.8s2.1-3.8,3.4-5.6c1.3-1.8,2.7-3.4,4.3-4.8,1.6-1.4,3.3-2.5,5-3.3,1.8-.8,3.6-1.2,5.5-1.2s1,0,1.7.1c.6,0,1.3.2,1.9.4s1.2.4,1.7.8c.5.3.9.7,1.1,1.2,0,0,.2,0,.2.1,0,0,.1.2.2.2l.6.4c.3.5.5.9.8,1.3.3.4.4.9.4,1.4s0,.1,0,.2c0,0,0,.2,0,.2l.2.2h0c0,1.1-.3,1.9-.6,2.7-.3.8-.7,1.6-1.1,2.3-.5.7-1,1.4-1.6,2s-1.3,1.2-2,1.8c0,0-.2.2-.2.2,0,0-.1.1-.2.3-.2.3-.5.5-1,.6-.5.1-.9.2-1.2.2s-.9,0-1.5-.3-1-.4-1.5-.7-.9-.7-1.2-1.1c-.3-.4-.5-.9-.5-1.4s0-.3.2-.5c.1-.2.3-.3.5-.3.4,0,.8,0,1.1.2.4.2.7.2,1.1.2.7,0,1.4-.2,2.2-.7.8-.5,1.5-1,2.2-1.7.7-.7,1.2-1.4,1.6-2.2.4-.8.6-1.6.6-2.3s0-.6-.2-.8c-.1-.2-.3-.3-.5-.4-.2,0-.5-.1-.7-.1-.3,0-.5,0-.8,0h0c0-.1,0,.4,0,.4-.2,0-.5,0-.7.2-.2,0-.5.2-.6.2-.4.1-.8.3-1.3.6-.5.3-1,.6-1.6.9-.5.3-1,.7-1.5,1-.5.4-.8.7-1.1.9-1.3,1.1-2.5,2.6-3.6,4.3-1.1,1.7-2.1,3.6-2.9,5.5-.8,1.9-1.5,3.9-2,5.9-.5,2-.7,3.8-.7,5.5s.2,2.1.6,2.9c.4.8,1.3,1.2,2.6,1.2s2.4-.3,3.3-.9,1.6-1.3,2.3-2.1,1.3-1.6,2-2.5c.6-.9,1.4-1.6,2.3-2.1-.8,1.1-1.6,2.2-2.5,3.3-.9,1-1.8,2.1-2.6,3.2.4-.3.8-.8,1.3-1.4.5-.6,1.1-1.3,1.7-1.9s1.1-1.3,1.6-1.8c.5-.5.9-.9,1.2-1.1l-.5,1.1c.2-.2.5-.4.8-.6h.1c0,.4-.2.8-.5,1.3-.3.4-.5.8-.7,1.1l1.4-1.7c-.7,1.1-1.5,2.3-2.2,3.3s-1.6,2.1-2.4,3.2c.6-.6,1.1-1.2,1.6-1.8.5-.6,1-1.2,1.5-1.9-.5.8-1.2,1.6-1.9,2.5-.7.9-1.5,1.7-2.4,2.4-.9.7-1.8,1.4-2.8,1.8-1,.5-2,.7-3,.7ZM535.6,143.9c-.4,0-1,.3-1.8.8-.9.5-1.7,1.1-2.6,1.8-.9.7-1.7,1.3-2.4,2-.7.7-1.1,1.2-1.2,1.6.2-.1.3-.2.5-.3.1,0,.3-.2.5-.2h0c.1-.4.5-.8,1.1-1.3.6-.5,1.2-1,1.9-1.5.7-.5,1.4-1,2.1-1.4.7-.4,1.2-.8,1.6-1,0,0,.1,0,.2-.1.1,0,.2-.1.2-.2h0ZM527.7,164h0v.2-.2ZM527.9,149c.5-.4,1-.7,1.5-1.2s.9-.9,1.3-1.4l-2.8,2.6ZM529.9,151.1c.2,0,.4-.2.8-.6s.8-.7,1.2-1.1c.4-.4.9-.8,1.3-1.2s.7-.7.9-.9c0,0-.4.2-.8.5-.4.4-.9.8-1.4,1.2-.5.4-.9.9-1.3,1.3s-.6.7-.7.8ZM530.7,156.3h-.2s0,.1,0,.1h.2ZM530.8,156.1c0,0,.1,0,.1-.2,0-.1,0-.2,0-.3h-.1c0,0,0,0,0,0,0,0,0,.1,0,.1v.2ZM531.6,152.8h0c0-.1,0,0,0,0h0c0,0,0,0,0,0ZM531.7,154.3h-.2c0,0,0,.2,0,.2h0v-.2ZM532.1,153.9h0c0-.1,0,0,0,0h0c0,0,.1,0,.1,0ZM531.9,152.2c.8-.8,1.7-1.5,2.6-2.3.9-.7,1.7-1.5,2.5-2.4-.2,0-.6.3-1.1.7-.5.4-1.1.9-1.7,1.4-.6.5-1.1,1-1.6,1.5-.5.5-.7.8-.7,1ZM539.8,147.2c-.5.3-1.2.7-2,1.1-.8.4-1.5.9-2.2,1.5-.7.5-1.4,1.1-2,1.7-.6.6-1,1.2-1.2,1.8.2-.2.4-.4.6-.8.2-.2.4-.3.6-.5.2-.1.3-.3.5-.5,0-.3.4-.6.9-1,.5-.4,1.1-.8,1.7-1.2.6-.4,1.2-.8,1.8-1.2.6-.4,1-.7,1.3-.9ZM532.9,147.7l.3-.2-.3.2h0ZM534.5,175h0c0,0,0,0,0,0h0c0,0,0,0,0,0ZM537.1,175.1c.3-.3.5-.5.7-.9s.5-.7.7-1c-.3.3-.5.6-.8.9s-.5.6-.7,1ZM537.2,143.2h0c0,.1,0,0,0,0h0c0,0,0,0,0,0ZM539.6,170.3h0c0,.1.1,0,.1,0h0c0,0-.2,0-.2,0ZM539.9,172.3v-.2s.2-.1.2-.1v.2s-.2.1-.2.1ZM540.3,171.7c0-.2,0-.3.2-.4,0-.1.2-.2.3-.3l-.4.7ZM540.8,154.8c.5-.1,1-.4,1.4-.7s.8-.6,1.3-.9h0c.2-.4.3-.7.5-.9.2-.3.3-.5.3-.8l-.3.6c-.5.4-1,.9-1.4,1.3-.4.5-.9.9-1.6,1.2h-.1ZM543.2,156.9h0s0,.2,0,.2h-.3c0,.1,0,0,0,0l.3-.2ZM543.1,154.5v.5c-.1,0,0-.2,0-.2v-.2ZM543,156.3c.4-.3.8-.6,1.2-.9.4-.3.7-.7,1-1.1,0,0-.2.1-.4.3s-.4.4-.7.6-.5.4-.7.6c-.2.2-.3.4-.4.5ZM544.6,153.2c-.5.4-1,.8-1.2,1.4,0,0,.2,0,.3-.2.1-.1.3-.3.5-.5.2-.2.3-.4.4-.6.1-.2.2-.3.2-.4h0c0,0,0,.2,0,.2ZM543.9,156.6c0,0-.1.1-.2.2,0,0-.2.1-.2.1l.4-.4h0ZM545.8,154.5c0,.3-.3.7-.7,1.1-.4.4-.7.7-1,.8.3-.3.5-.6.8-1,.2-.3.5-.6.9-.9ZM546.1,151s0,0-.1,0,0,0,0,.1h.2v-.2ZM546.2,149.6h0c0,.1,0,.1,0,.1h.1c0-.1,0-.2,0-.2h-.2Z"/>
    <path class="st11" d="M548.3,177.7c-.7,0-1.2-.1-1.7-.4-.4-.3-.8-.6-1-1-.2-.4-.4-.9-.5-1.5,0-.5-.1-1.1-.1-1.6,0-1,.2-2.5.5-4.4.3-1.9.8-4,1.3-6.3.6-2.3,1.3-4.6,2.1-7,.8-2.4,1.7-4.6,2.7-6.5,1-1.9,2-3.5,3.2-4.8s2.3-1.9,3.6-1.9.2,0,.4,0,.2,0,.4,0h0c0,.1-.2.4-.2.4h0c0,0,.2,0,.3,0,.1,0,.2,0,.3,0,.2,0,.3,0,.5,0s.2.2.2.4c.1.2.3.3.6.3.2,0,.2.2.2.3s0,.1,0,.1c0,0,0,0,0,0,0,0-.2.3-.4.5-.2.2-.4.5-.5.8-.2.3-.3.5-.5.7-.1.2-.2.4-.2.5h0c.3-.3.5-.7.8-1.1s.6-.8.9-1.2h.2c0,.2-.2.5-.4.9-.2.4-.4.9-.7,1.5-.3.5-.5,1-.8,1.5s-.4.8-.5,1.1c-.1.3-.2.5-.3.7,0,.2-.1.5-.2.7-.3.8-.6,1.6-1,2.3-.4.8-.7,1.5-1.1,2.3-.6,1.5-1.2,3-1.9,4.6-.7,1.6-1.3,3.2-1.8,4.9s-1.1,3.3-1.5,5c-.4,1.7-.7,3.3-.9,4.9,0,0,0,.2,0,.3v.3c0,.2,0,.4,0,.5.2-1.2.4-2.4.6-3.6.2-1.2.5-2.3.8-3.5,1-3.2,2.1-6.3,3.3-9.3,1.2-3.1,2.5-6.1,3.7-9.2.4-.9.9-1.8,1.4-2.6s1-1.7,1.4-2.6c0,.5-.2,1-.4,1.6-.2.5-.4,1.1-.7,1.7-.3.6-.5,1.1-.8,1.6-.3.5-.5,1-.7,1.6-.4,1-.8,2.1-1.3,3.4-.5,1.3-1.1,2.6-1.7,4-.6,1.4-1.2,2.8-1.8,4.3-.6,1.5-1.2,2.9-1.7,4.3-.5,1.4-.9,2.7-1.2,4-.3,1.3-.5,2.4-.5,3.3v.5c0,.2,0,.4,0,.5.2,0,.4,0,.7,0s.5,0,.5.3-.2.4-.5.6c-.3.2-.7.4-1.1.6s-.8.3-1.2.4c-.4.1-.7.2-.8.2ZM546.4,174.7c.3-2.1.7-4.3,1-6.4.4-2.1.8-4.3,1.4-6.4-.3.8-.5,1.7-.8,2.6s-.5,1.9-.8,2.9c-.3,1-.5,1.9-.6,2.9s-.2,1.8-.2,2.6,0,.6,0,.9,0,.6,0,.9ZM547.5,164.3h0c0,.1,0-.1,0-.1h0ZM547.7,163.7h0c0,0,.1-.2.2-.3s0-.2.1-.4h-.1c0,0-.1.7-.1.7ZM548.1,162.3c0-.3.1-.7.2-1.1.1-.4.3-.9.4-1.4.1-.5.3-.9.4-1.4.1-.4.3-.8.4-1.1,0,.3-.2.7-.4,1.1-.2.4-.3.9-.5,1.4-.1.5-.3.9-.4,1.4-.1.4-.2.8-.2,1.1h0ZM548.2,174.8s0,0,0-.1,0-.2,0-.2c0-.2,0-.3,0-.5,0-.2,0-.4,0-.5v-1c-.1.6-.2,1.3-.2,1.9v.4h0ZM549.7,174.8v-.9c0-.3,0-.6,0-.9,0,.2,0,.3,0,.5,0,.2,0,.4,0,.6,0,.5,0,1,.1,1.5v-.8ZM549.7,156.7h0s0-.5,0-.5h0s-.1.5-.1.5ZM550.1,164.6h-.1c0,0,0,.2,0,.2v-.2ZM550.2,164.5c.4-.9.7-1.7.9-2.6.3-.9.5-1.8.8-2.7.2-.7.5-1.5.9-2.2.4-.7.7-1.4,1.1-2.1.3-.7.7-1.4,1-2.2.3-.7.5-1.5.6-2.2-.3.5-.8,1.4-1.3,2.6-.6,1.3-1.1,2.7-1.7,4.1s-1.1,2.9-1.5,4.2c-.4,1.3-.7,2.3-.7,2.8h0ZM550.5,154.5c.3-.6.6-1.2.9-1.7.3-.5.5-1,.8-1.6.3-.6.6-1.1.8-1.7.3-.5.5-1,.7-1.4.2-.4.4-.7.5-.8-.6,1.2-1.2,2.4-1.7,3.6-.5,1.2-1,2.4-1.4,3.7.5-1.4,1.1-2.7,1.7-4s1.4-2.6,2.2-3.7c.3-.5.8-1,1.3-1.5.5-.5.9-1,1.2-1.5-.5,0-1,.4-1.5.9-.5.5-.9,1.1-1.2,1.6v-.4c-.1.3-.5.9-1,1.6-.4.8-.9,1.6-1.3,2.5-.4.9-.9,1.7-1.2,2.5-.4.8-.6,1.4-.7,1.8ZM551.7,165.3c.5-1.2.9-2.3,1.3-3.2.4-.9.8-1.9,1.2-3,.4-1.1.8-2.2,1.2-3.2s.8-1.9,1.1-2.7.5-1.3.7-1.7h-.1c-1.1,2.3-2.1,4.5-2.9,6.8-.8,2.3-1.6,4.6-2.4,6.9ZM554.2,147.3s0,0,0-.1c0,0,0,.1,0,.1ZM554.3,147.1c0-.2.2-.5.4-.7l-.4.7ZM558.5,145.1c-.7.8-1.3,1.7-1.7,2.6-.5.9-.9,1.8-1.4,2.8.5-.9,1-1.8,1.6-2.7.6-.9,1.1-1.8,1.5-2.7ZM559.3,147c0,0-.2.1-.3.4-.1.3-.3.5-.4.9-.1.3-.3.6-.4.9-.1.3-.2.5-.2.6.1,0,.2-.3.4-.5s.2-.5.3-.8c.1-.3.2-.5.3-.8.1-.3.2-.4.4-.6h0Z"/>
    <path class="st11" d="M573.3,160c0,.6-.2,1.3-.5,2s-.8,1.5-1.3,2.2c-.5.7-1.1,1.3-1.7,1.9s-1.2,1-1.7,1.3l-.2.3c.2,0,.5-.2.8-.5.3-.2.7-.5,1-.8s.6-.6.9-.9.5-.5.7-.7h.4c-.4.2-.8.7-1.5,1.2s-1.3,1.1-2,1.6c-.7.5-1.5,1-2.2,1.4-.7.4-1.3.6-1.8.6h-.2c-.2,0-.5.2-.8.3-.4.1-.7.2-.9.2s-.3,0-.5,0c-.1,0-.3,0-.5,0,0,.4-.1.8-.2,1.2,0,.4-.1.8-.1,1.2s0,.4,0,.6c0,.2,0,.4.1.6,0,.2.2.4.3.6.1.2.3.2.5.2.8,0,1.5-.1,2.1-.4.6-.2,1.2-.5,1.8-.9.6-.4,1.1-.7,1.7-1.1s1.2-.8,1.8-1.1c-.3.4-.6.8-1,1.2-.4.4-.8.7-1.3,1,.5-.2,1-.5,1.4-.9.4-.4.9-.8,1.4-1l-.2.3c.1,0,.3,0,.5,0v.3s0,.1,0,.1c-.4.4-.9.9-1.3,1.4s-.9.9-1.4,1.3h.1c-.2.2-.5.5-.9.9-.4.3-.9.6-1.3.9-.5.3-1,.5-1.5.7-.5.2-.9.3-1.3.3-1.1,0-2.2-.2-3.1-.6-.9-.4-1.7-1-2.4-1.7s-1.2-1.6-1.6-2.5c-.4-1-.6-2-.6-3.1s.4-3.1,1.1-4.9,1.7-3.5,2.9-5.1,2.6-2.9,4.1-4c1.5-1.1,3.1-1.6,4.7-1.6s1.5.2,2.2.6,1.3.9,1.7,1.5.9,1.3,1.1,2.1c.3.8.4,1.5.4,2.3ZM561.2,159.1c.8-.7,1.6-1.3,2.4-1.9.8-.6,1.7-1.2,2.4-1.9-.2,0-.4,0-.6,0h-.3c-.3.3-.6.6-1,.9s-.8.6-1.2,1c-.4.3-.8.7-1.1,1s-.5.6-.6.9h0ZM562.4,157.2c-.2.2-.3.3-.5.5-.2.1-.3.3-.5.5.2-.2.3-.3.5-.5.2-.1.3-.3.5-.5ZM562.7,166.5c.6-.3,1.3-.8,2.2-1.5.9-.7,1.7-1.4,2.5-2.2.8-.8,1.5-1.6,2-2.5.6-.9.8-1.7.8-2.4s0-.3-.2-.3c-.6,0-1.3.4-2,1.1-.7.7-1.5,1.6-2.2,2.6-.7,1-1.3,1.9-1.9,2.9s-1,1.7-1.2,2.2ZM564.8,161.8c0,0-.2.3-.4.5-.2.2-.3.4-.5.7-.2.2-.3.4-.5.7-.1.2-.2.4-.2.5h0c.3-.4.5-.7.8-1.1s.5-.8.7-1.2ZM563.6,159.1c.3-.1.6-.4,1-.8s.7-.7.9-1c-.4.3-.7.5-1.1.8s-.7.6-.9.9ZM564.3,166.7c.7-.4,1.5-.9,2.4-1.6.9-.7,1.5-1.4,2-2.1-.3,0-.5.2-.7.3-.2.2-.4.4-.5.6-.5.5-1.1,1-1.6,1.3-.6.4-1.1.8-1.5,1.4ZM567.7,157.6c-.2,0-.4.3-.7.5s-.6.6-.9.9c-.3.3-.6.6-.9.9s-.5.5-.6.7c.5-.5,1.1-1,1.6-1.5.5-.5,1-1,1.5-1.6ZM568.9,157.8c-.2,0-.5.2-.9.5-.4.3-.8.6-1.2,1-.4.4-.8.7-1.1,1.1s-.5.6-.5.8h0c.6-.6,1.2-1.1,1.8-1.7s1.2-1.1,1.8-1.7ZM567.5,165.8c.4-.3.9-.6,1.2-1,.4-.4.8-.7,1.1-1.1l-2.4,2.1ZM568.3,163.2l-.2.4-.4.2.6-.6ZM570.5,164.7c0,0-.2.1-.4.3-.2.2-.5.4-.7.6-.3.2-.6.5-1,.9,0,0,.2,0,.5-.2.2-.2.4-.4.6-.6s.4-.4.6-.6c.2-.2.3-.3.4-.4ZM569.1,162.3l-.5.4c0,0,.2,0,.2,0s.1,0,.2-.1h0s0,0,0,0h0c0-.1-.1-.3-.1-.3ZM572,164.1c0,0,0-.2.2-.3.1-.2.2-.3.3-.3,0,0,0,.2-.2.4l-.3.3Z"/>
    <path class="st11" d="M572.1,171.6c0-.3,0-.6,0-1,0-.3,0-.6.2-.9.5-1.6,1-3.1,1.5-4.6.5-1.5,1.2-2.9,2.3-4.3.5-.7,1.2-1.4,1.8-2,.7-.7,1.4-1.2,2.2-1.7.8-.5,1.6-.9,2.5-1.2.9-.3,1.8-.5,2.7-.5s2,.3,2.7.8,1.2,1.3,1.7,2.2c.2-.1.5-.3.8-.6s.6-.5.9-.7c.3-.2.6-.4.9-.6s.6-.2.8-.2.2,0,.2,0c0,0,0,.2,0,.3,0,0,0,.2,0,.2s0,0,0,0,0,0,0,0c0,0,.2-.1.4-.1.2,0,.4,0,.5,0,0,0,0,0-.1.2,0,0,0,.1,0,.2,0,0,0,0,0,0s0,0,0,0,0,0,0,0l.5.2v.4c0,.4-.2.8-.4,1.2-.2.4-.4.8-.6,1.1l.2-.2c-.3,1-.7,2.2-1.3,3.5s-1.1,2.6-1.7,3.9c-.6,1.3-1.1,2.6-1.5,3.9-.4,1.3-.6,2.4-.6,3.3s0,.6.1.8c0,.2.2.3.3.4s.2.2.3.3c0,0,.1.2.1.4-.4.4-.9.7-1.5.8-.6.1-1.2.2-1.7.2s-1.1-.1-1.5-.4-.7-.7-.9-1.1-.4-.9-.4-1.5c0-.5,0-1.1,0-1.6v-.7c0-.2,0-.4,0-.7-.4.4-.8.8-1.3,1.4-.5.5-1,1.1-1.6,1.6-.6.5-1.1,1-1.7,1.3s-1.2.5-1.7.5-1.2,0-1.7,0-.9-.2-1.2-.4c-.4-.2-.7-.5-1-.9-.3-.4-.6-.8-.9-1.4,0-.4,0-.7,0-1,0-.3,0-.7,0-1ZM577,162.3h-.3s.3,0,.3,0ZM576.8,169.9h0c0,.1,0,0,0,0h0c0,0,0,0,0,0ZM577.1,171.7c.3-.3.4-.6.6-1,.1-.4.3-.8.4-1.1l-.9,1.4v.7ZM587.2,160.4c-.9,0-1.7.3-2.5,1s-1.6,1.5-2.3,2.4c-.7.9-1.4,1.9-2.1,2.8s-1.2,1.7-1.8,2.3c0,.3-.2.5-.4.9s-.3.7-.5,1.1c-.2.4-.3.7-.4,1.1s-.2.6-.2.8h0c.3,0,.7-.3,1.4-.8s1.3-1.2,2.1-2c.8-.8,1.6-1.7,2.4-2.6.8-1,1.6-1.9,2.3-2.8.7-.9,1.2-1.7,1.7-2.4.4-.7.7-1.2.7-1.6s0-.2-.2-.3c-.1,0-.2,0-.3,0ZM577.2,161.7h0c0,.1,0,.2,0,.2h.1c0,0-.1-.2-.1-.2ZM583.5,157.1c-.4,0-.9.1-1.4.4-.5.3-1,.6-1.5,1-.5.4-1,.8-1.4,1.2s-.8.8-1,1.1c0,0,.3-.1.5-.3.2-.2.5-.4.7-.6.3-.2.5-.4.8-.7s.5-.4.6-.5c.1,0,.3-.2.6-.3.3-.1.6-.3.9-.5s.5-.3.8-.5c.2-.2.4-.3.5-.4ZM579.9,158.7c0,0-.3.2-.6.5s-.4.4-.4.5l1-.9ZM586.6,160.1c-1,.4-1.8.8-2.6,1.3-.7.5-1.4,1.1-2,1.8-.6.7-1.1,1.4-1.6,2.2-.5.8-1,1.6-1.4,2.5.2-.3.4-.6.6-1,.2-.3.4-.7.6-1,.5-.8,1-1.5,1.5-2,.4-.5.9-1,1.4-1.3.5-.4,1-.8,1.6-1.1.6-.4,1.2-.8,2-1.4ZM579.2,172.5c0,0,.3-.1.6-.4.3-.3.7-.6,1.1-1.1.4-.4.9-.9,1.3-1.4.5-.5.9-1,1.3-1.4.4-.5.7-.9,1-1.2.3-.3.4-.6.5-.7h0c-.4.3-.8.7-1.3,1.2-.5.5-1,1.1-1.6,1.7-.5.6-1,1.2-1.6,1.8-.5.6-.9,1.1-1.3,1.5ZM580.1,161.7c0,0,.3-.2.5-.4.3-.2.5-.4.8-.7s.6-.5.8-.7c.3-.2.5-.4.6-.5-.5.3-1,.6-1.5,1-.4.4-.9.8-1.3,1.3ZM580.2,164.3c0,0,.2-.1.2-.2,0,0,.1-.2.2-.3.6-.8,1.4-1.4,2.2-2,.8-.6,1.6-1.2,2.3-2-.4,0-.8.2-1.2.6-.5.4-1,.8-1.4,1.3-.5.5-.9,1-1.3,1.4-.4.5-.7.9-.9,1.1ZM583.4,171.1s-.2.1-.4.4c-.2.2-.5.5-.7.8-.3.3-.5.6-.8.9-.3.3-.5.6-.6.7.4-.4.9-.9,1.3-1.4.4-.5.8-.9,1.3-1.5ZM583.6,170.3c-.3.3-.6.6-.9.9-.3.4-.5.7-.8,1,0,0,.2-.2.4-.4.2-.2.3-.3.5-.5.2-.2.3-.4.5-.5.1-.2.2-.3.2-.4ZM583.8,168.8h-.2c0,0,0,.2,0,.2h.1s.2,0,.2,0h0ZM584.7,170.3c0,.1,0,.2,0,.2v-.2ZM585.5,168.9c-.2.4-.3.8-.4,1.2-.1.4-.2.8-.3,1.3.2-.4.4-.8.5-1.2s.2-.9.3-1.3h0ZM585.8,168.2h-.1c0,.1,0,.3,0,.3l.2-.3ZM589.4,164c-.3.5-.6,1.2-1,2-.4.8-.7,1.6-1,2.4s-.6,1.7-.8,2.5c-.2.8-.3,1.5-.3,2.1v.2c0-.2.2-.4.2-.6s0-.4.1-.6c.3-1.4.7-2.7,1.2-4.1s1.1-2.6,1.7-3.9ZM587.5,174.6c.4-1.6.8-3.1,1.3-4.6.5-1.5,1-3,1.6-4.6-.6,1.5-1.2,3-1.7,4.5-.5,1.5-.9,3.1-1.1,4.7ZM588.8,161.7c0,0-.2,0-.3.3-.1.2-.2.4-.3.6-.1.2-.2.4-.3.6,0,.2-.2.3-.2.4.2-.2.4-.5.6-.9s.4-.7.5-.9ZM588.1,162.1c0,0-.2.2-.3.3,0,.1-.1.2-.1.4l.3-.3v-.3ZM588.2,174.6c.6-2.5,1.5-4.9,2.5-7.3,1-2.4,2-4.7,2.9-7.1-.4.7-.8,1.7-1.5,3-.6,1.3-1.2,2.6-1.8,4-.6,1.4-1.1,2.7-1.5,4-.4,1.3-.6,2.3-.6,3.1v.3h0ZM589.7,163.6c0,0,.1-.2.2-.4,0-.1,0-.3,0-.4l-.2.4v.3ZM592.6,157.3c-.2,0-.4.2-.6.4-.2.2-.5.4-.7.7-.2.3-.5.5-.7.8-.2.3-.4.5-.5.6h.2c.4-.4.8-.8,1.2-1.2.4-.4.8-.8,1.1-1.3ZM590.3,162.2c0,0,.2-.2.3-.5.1-.3.2-.5.3-.6h0c-.2,0-.4,0-.4.4,0,.3-.1.5-.1.7ZM591.2,163.6l-.2.4h.1c0,0,0-.4,0-.4ZM591.3,163.2v.2c-.1,0,0,0,0,0v-.2c0,0,0,0,0,0ZM592.8,158.5c0,0-.2,0-.3.3s-.3.4-.4.6c-.1.2-.3.4-.4.6-.1.2-.2.4-.3.5,0,0,.2-.2.4-.4.1-.2.3-.4.4-.6.1-.2.3-.4.4-.6.1-.2.2-.3.2-.4ZM594.6,157.8c0,0-.3.2-.5.6-.3.4-.4.6-.5.7.4-.5.7-.9,1-1.3ZM594.6,158.5c0,.1-.2.4-.3.8-.2.4-.3.6-.4.6l.8-1.3Z"/>
    <path class="st11" d="M614.2,158.9s0,0-.1,0l-.2.6v.2s.2-.2.2-.2h0c0-.1,0-.4,0-.4,0,0,0,.3,0,.5,0,.5,0,1.1-.2,1.6-.1.5-.3,1-.5,1.5v.2h-.4c0,.1,0,.3,0,.3v.5c-.1,0,0,.1,0,.1h.1c0,.1-.4.3-.4.3h0c0,.2,0,.3,0,.3,0,0,0,.1,0,.2,0,0,0,.2,0,.2l-.3.2c0,.4-.1.8-.3,1.1-.2.3-.3.7-.4,1.1l-.4.5c0,.2-.1.4-.3.5-.1,0-.2.3-.2.5v.4h.1c0,0-.1.3-.2.6,0,.3-.2.5-.3.7-.3,1-.6,1.9-1,2.8-.3.9-.7,1.9-1.1,2.8v.3c.1,0,.2-.2.2-.3s0-.2,0-.3h.2s.1-.6.1-.6h0c.2-.7.4-1.2.7-1.7.3-.5.5-1.1.6-1.6l.2-.3h0c0,.6-.2,1.1-.4,1.7-.2.5-.5,1-.8,1.4,0,.3-.2.7-.4,1.1s-.3.8-.3,1.1,0,.2,0,.2v.3c0,0-.1,0-.1,0h-.2c0,.1-.4,0-.4,0-.1,0-.2,0-.4,0-.1-.1-.2-.2-.3-.3v.2c0,0,0,.2,0,.4,0,.2,0,.3-.2.3-.6,0-1.1-.2-1.5-.6-.4-.4-.8-.8-1.1-1.4s-.6-1.1-.7-1.7c-.2-.6-.2-1.1-.2-1.6,0-1.2.2-2.5.5-3.8.4-1.4.7-2.6,1.1-3.8-.1,0-.3.2-.5.3-.2.2-.4.4-.5.6-.2.2-.4.4-.5.6-.2.2-.3.4-.4.5.4-.6.8-1.1,1.2-1.6.4-.5.8-1.1,1.2-1.7-.3.3-.7.8-1.3,1.6-.6.8-1.2,1.6-1.8,2.4-.6.8-1.2,1.6-1.7,2.2-.5.7-.8,1.1-1,1.1v-.6l-.6.9h0s.5,0,.5,0c-.1.3-.3.6-.5.9-.2.4-.4.7-.5.9l.7-.9c-.1.2-.4.6-.7,1.1-.4.5-.7,1.1-1.1,1.7-.4.6-.8,1.1-1.2,1.5-.4.4-.7.7-.9.7h0s-.3.2-.3.2h0c0-.2,0-.2-.1-.2-.1,0-.2,0-.3.1,0,0-.2.1-.3.1s-.2,0-.2-.2c0-.1,0-.2,0-.3s0-.1,0-.2c0,0,0-.1,0-.2,0,.2-.1.4-.2.6,0,.3-.2.4-.4.4s0,0,0,0c0,0,0,0,0,0-.2-.2-.2-.5-.2-.8s0-.3,0-.4c0,0-.1.2-.1.3,0,.1,0,.3-.1.4-.3,0-.4-.3-.4-.7,0-.4,0-.8,0-1,0-.9,0-1.9,0-2.8s.1-1.9.2-2.8c0-.5.2-1.2.5-2.2.3-1,.6-2,1-3.2.4-1.1.9-2.3,1.4-3.6.5-1.2,1.1-2.3,1.6-3.3.6-1,1.1-1.8,1.7-2.5s1.1-1,1.6-1,.1,0,.2,0c0,0,.1,0,.2,0-.4.8-.9,1.6-1.4,2.3-.5.7-.9,1.5-1.3,2.4.4-.4.7-.9,1-1.4.2-.5.6-1,1.1-1.3,0,0,.2-.2.3-.4.1-.2.2-.4.4-.5s.3-.4.4-.5c.1-.1.3-.2.4-.2s.1,0,.1,0c0,0,0,0,.1,0,0,.1,0,.3,0,.4,0,.2,0,.3,0,.4h.1s.3-.4.3-.4l.3.5c.2,0,.3.2.4.5,0,.3.1.5.1.6,0,.3,0,.6-.1,1.1,0,.5-.2.8-.3,1.1v.3c.1,0,.2-.2.3-.5s0-.5,0-.6v-.2c.2.1.2.3.2.5s0,.5-.1.8c0,.3-.2.6-.3.9s-.2.6-.3,1-.2.6-.3.8c.7-.6,1.3-1.2,1.8-1.8.5-.6,1.1-1.2,1.7-1.8.6-.6,1.2-1.1,1.8-1.6.6-.5,1.4-.9,2.2-1.4h1.1c0,0,0,.2,0,.3,0,0,0,.2,0,.3.3,0,.4,0,.6,0h0c.2,0,.3.1.5.3.2.2.4.4.6.6.2.2.4.4.5.7.2.2.3.4.4.5,0,.3,0,.6,0,.7s0,.1,0,.2c0,0,0,.1,0,.2h0s0,0,0,0h0ZM593.7,174.4s0,0,0-.2,0-.1,0-.2h0c0-.1-.1.2-.1.2h0ZM595.1,173.6c.2-.4.4-.9.6-1.4.2-.6.4-1.2.6-1.8.2-.6.3-1.3.5-1.9.1-.6.3-1.1.4-1.6-.4,1.1-.8,2.2-1.2,3.3-.4,1.1-.7,2.2-.9,3.4ZM597.6,165.9c0,0,0,.1,0,.2s0,.2,0,.2h0s0-.5,0-.5ZM598.6,173.8h-.1,0s0,0,0,0ZM598.6,157.8v-.2c0,0,.2,0,.2,0h0s-.1.1-.1.1h0ZM599.1,172.8h-.2c0,0,0,.2,0,.2h.1v-.2ZM599.2,171.9l-.2.2h0c0,0,.2,0,.2,0h0ZM599.1,166.8c.2-.4.4-.9.6-1.4.2-.5.3-.9.5-1.4,0,.2-.2.4-.3.6-.1.3-.3.5-.4.8-.1.3-.2.5-.3.7,0,.2-.1.4-.1.5h0ZM599.9,167c0,.2-.2.4-.4.7-.2.3-.2.6-.2.7,0,0,0,0,.1-.2,0-.1.1-.3.2-.5,0-.2.1-.3.2-.5,0-.1,0-.2,0-.3ZM600.1,168.6v.3c0,0,0-.1,0-.2,0,0,.1-.2.2-.2h-.2ZM600,171.6c0-.2.3-.5.6-.9.3-.4.6-.9.9-1.3.3-.5.6-.9.9-1.3s.5-.6.6-.7c-.3.6-.7,1.2-1.1,1.7-.4.5-.8,1-1.2,1.7,0,.1-.1.3-.2.6,0,.3-.2.4-.4.4h-.1ZM600.2,166.1h-.1c0,.1,0,.2,0,.2h0c0-.1,0-.2,0-.2ZM600.2,163.6h0c0,0,.1,0,.1,0h0c0,0-.2,0-.2,0ZM600.3,168.2c0,0,0,0,.1,0h0c0,0,0-.2,0-.2h-.1ZM601.1,168.9c-.1.1-.2.3-.3.4,0,.1-.2.3-.3.5.3-.2.4-.5.6-.9ZM603.2,162.1c-.3.6-.6,1.2-1,1.7-.4.5-.7,1.1-1,1.7.9-1.2,1.8-2.5,2.8-3.7,1-1.2,2.1-2.4,3.3-3.4.3-.2.5-.4.7-.6.2-.2.4-.4.6-.7h-.2l-.2.3c-.5.2-1,.4-1.4.9s-.8.9-1.1,1.3c-.4.5-.7.9-1.1,1.4-.4.5-.8.8-1.2,1.1ZM602.8,159.6c-.4.5-.6,1.2-.9,1.9-.2.7-.5,1.4-.6,2,0,0,.2-.3.4-.7.1-.3.3-.7.5-1.1s.3-.8.4-1.2c.1-.4.2-.7.3-.8ZM601.8,156c0,0-.1.2-.2.3,0,0-.2.2-.3.3.2,0,.4-.3.5-.5h0ZM601.5,168.3c0,0,.2-.2.3-.3,0-.1.2-.2.2-.3,0,0-.2.2-.3.3,0,.1-.2.2-.2.3ZM601.9,166.1c0,0,.2,0,.2-.2s0-.2,0-.3h0v.3c-.1,0-.3.1-.3.1h0ZM603.7,165.3c-.4.3-.7.6-1,1.1s-.5.9-.7,1.2c.2-.2.4-.4.5-.7.1-.3.3-.5.6-.6l.5-1ZM602.3,165.4h.1c0,0-.1-.2-.1-.2h-.1c0,.1.1.2.1.2ZM602.9,159.2v.2-.2s0,0,0,0ZM603.5,166.7h0c-.1.3-.3.4-.5.5l.5-.5ZM603.6,157.1v-.2c.1,0,.2.1.2.1v.2c-.1,0-.2-.1-.2-.1ZM604.9,163.7c-.1,0-.2.2-.3.4,0,.1-.1.3-.1.5l.5-.8ZM605.1,163.6c0,0,.1,0,.2-.2,0-.1.1-.2.2-.3l-.3.5ZM605.6,161.2h0s0,0,0,0h0c0,0,0,0,0,0ZM605.6,162.9c0,0,.2-.1.3-.2s.3-.2.4-.4c.1-.1.3-.3.4-.4,0-.1.1-.2.1-.3,0,0-.2,0-.3.2s-.2.2-.4.4c-.1.1-.2.3-.4.4-.1.1-.2.2-.2.3ZM605.6,169.7l.2-.2h-.1c0-.1,0,0,0,0h0ZM605.8,171.2h0s0,0,0,0h0s0,.1,0,.1h0ZM606.1,171h0s-.2-.2-.2-.2h-.1s.3.2.3.2ZM606.4,171.3h-.2,0s.2,0,.2,0ZM607.1,167.9h-.1c0,0,0,.3,0,.3h0v-.3ZM607.2,172.8h.1s-.2,0-.2,0h0ZM607.4,172.6h0c0,0-.2-.3-.2-.3v.3ZM607.4,176.8h-.1s.1.3.1.3h0c0,0,0-.3,0-.3ZM607.6,171.5c0,0-.1.2-.1.3v-.2c.1,0,.1-.1.1-.1ZM607.7,165.5h0c0,0,0,0,0,0h0c0,0,0,0,0,0ZM608.5,168.7c0,.2-.2.4-.4.5-.2.1-.3.3-.3.5h.2c-.1.2-.2.4-.3.6,0,.2-.2.4-.3.6v.2c.2,0,.2,0,.3,0,0,0,.1,0,.1,0h.3c0,0,0-.1-.1-.2s0-.1,0-.2,0-.1,0-.2c0,0,.1-.2.2-.2,0-.1,0-.2,0-.3,0-.2,0-.4.2-.6.1-.2.2-.5.2-.7ZM607.6,165h0v.3c0,0,0-.2,0-.2h0ZM607.7,171.3c0,0,.1,0,.2,0,0,0,0,0-.1-.2h0ZM608.4,175h0c0,0,0-.2-.2-.3v.2s.2,0,.2,0ZM608.5,162.2v-.3c0,0,0-.2,0-.2v.5ZM609.5,171.7s0,0-.2.2c0,.1-.2.3-.2.5,0,.2-.1.4-.2.5,0,.2-.1.3-.2.3v.3c0,0,0,.2-.1.4s0,.3,0,.4v.3c.2-.4.4-.9.6-1.4.2-.5.4-1,.4-1.4h0ZM608.6,167.9v.2s.2-.3.2-.3h0s0,.2,0,.2h.2c0-.2,0-.4-.3-.4v.2ZM608.7,156.8h.1c0,.1,0,0,0,0h0c0,0,0,0,0,0ZM608.8,167.5h0l.3-.3-.3.3ZM608.9,160.6h0c0,.1,0,.2,0,.2v-.2ZM609.1,166.8h0s.2,0,.2,0h0c0-.1,0-.3,0-.3v.4ZM609.1,171.6h0c0,.1.1,0,.1,0h0c0,0-.1,0-.1,0ZM609.6,165.8c0,0,0-.2,0-.4v.4ZM609.6,170.5h0c0,.1,0,.2.1.3,0,0,.1.1.2.1h0s-.3-.4-.3-.4ZM610.5,169.3v-.3s-.2-.1-.2-.1c-.1.3-.2.6-.2.8h0c0-.1,0,0,0,0,0,.1,0,.2,0,.2,0,.2,0,.3.2.3s0,0,0,0c0,0,0,0,0,0h0c0-.1,0-.5,0-.5l.3-.2h0ZM609.9,164.4h0c0,.1,0,0,0,0h0c0,0,0,0,0,0ZM610.9,167.2c-.2.2-.3.3-.3.4v.6c0-.1-.2-.2-.3-.4,0-.1-.2-.2-.3-.3l.2.3v.3c0,0,.3.2.3.2v.6c0-.4.2-.7.5-.9v-.3c.1-.2,0-.3,0-.5h.1c0,0,0-.1,0-.1h-.3ZM610.1,168.6h0s.2,0,.2,0h-.2ZM610.2,163.5h0s.1,0,.1,0h-.1c0,0,0,0,0,0ZM610.6,162.4v.2c.1,0,.2,0,.3,0,0,0,.2-.1.2-.2v-.3s-.2-.2-.2-.2l-.2.5ZM610.7,168.1h.2c0-.1,0,0,0,0h-.2ZM610.9,167h0c0,0,0,0,0,0h0c0,0,0,0,0,0ZM611.2,170.7h0c0,0,0,.3,0,.3h-.2c0,0,.2-.3.2-.3ZM611.3,161.4v.2c0,0,0,.2,0,.2h0v-.3h0ZM611.5,166.3v.2s0-.2,0-.2c0-.3,0-.4,0-.6,0,0-.1.2-.1.3l.2.2ZM611.5,169.9h.2c0,.1-.4.6-.4.6v-.6ZM611.5,164.9h0c0,.1,0,0,0,0h0c0-.1,0,0,0,0ZM611.5,168.5h0c0,0,0-.2,0-.2h0c0,0,0,.2,0,.2ZM611.6,163.7h.4c0,0-.2,0-.2,0h-.2ZM611.7,165.7v-.4s-.1,0-.1,0v.3h.1ZM611.6,160.2h0c0,.1,0,0,0,0h0c0,0,0,0,0,0ZM611.6,169.4c0,0,.1-.1.2-.2,0,0,0-.2.1-.2v.5s-.3,0-.3,0ZM612.2,165.7h-.2c0,0,0,.3,0,.3h0v-.3ZM612.2,168.7v.2s-.1,0-.1,0v-.2h.1ZM612.1,163.5h0s.2,0,.2,0h-.1s-.1,0-.1,0ZM612.2,168.1h0c0,0,0-.1,0-.1h.3s0,0,0,0v.3c0,0-.3,0-.3,0ZM612.2,163.1c0,0,.1-.2.2-.3,0-.1.2-.2.3-.2h-.2c0,0-.3.1-.3.1v.3ZM612.6,161.9h0v.2h.1v-.2h0ZM612.6,166.7h0c0-.1,0-.2,0-.2h0c0,0,0,.2,0,.2ZM612.8,164.5h0c0,0,0,0,0,0h0c0,0,0,0,0,0ZM612.9,160.8h.1s0,0,0,0h-.2ZM613.1,162.5h0c0,0-.2-.2-.2-.2h0c0,0,.2.2.2.2ZM613,163.1h0c0,0,0-.2,0-.2h0c0,.1,0,.2,0,.2ZM613.4,158h0c0,.1,0,0,0,0h0ZM613.9,161.2c0,0-.1-.1-.1-.2,0,0,0-.2,0-.2h0l-.2.2h0c0,.2.1.2.2.2s.2,0,.2,0h0ZM613.7,164.3v.2c0,0,0,0,0,0v-.2c0,0,0,0,0,0ZM613.7,159c0,0,0,0,0,.2v-.2ZM614,158.1c0,0-.1,0-.2.1,0,0,0,.2,0,.2s0,0,0,0,0,0,0,0v-.3c0,0,.3.1.3.1v-.3h0ZM613.8,160.8c0,0,.2.1.2.1h0c0-.1-.2-.1-.2-.1ZM613.9,160.1h.2c0-.1,0-.3,0-.3v.3Z"/>
  </g>
</svg>